<?xml version="1.0" encoding="utf-8"?>
<!-- Generator: Adobe Illustrator 27.3.1, SVG Export Plug-In . SVG Version: 6.00 Build 0)  -->
<svg version="1.1" id="Lager_1" xmlns="http://www.w3.org/2000/svg" xmlns:xlink="http://www.w3.org/1999/xlink" x="0px" y="0px"
	 viewBox="0 0 61 42.79" style="enable-background:new 0 0 61 42.79;" xml:space="preserve">
<style type="text/css">
	.st0{fill:#FFFFFF;}
	.st1{fill:#1D1E1C;}
	.st2{fill:#161616;}
	.st3{fill:none;stroke:#FFFFFF;stroke-width:0.15;stroke-miterlimit:10;}
	.st4{fill:#F4F4F4;}
	.st5{fill:none;stroke:#FFFFFF;stroke-width:0.25;stroke-miterlimit:10;}
	.st6{fill:#6300FF;}
	.st7{fill:#C3EEC3;}
	.st8{fill:#161616;stroke:#FFFFFF;stroke-width:0.25;stroke-miterlimit:10;}
	.st9{fill:#1D1D1B;}
</style>
<g>
	<path class="st0" d="M6.1,24.4v12.2H0V24.4H6.1z M12.2,12.2v12.2H6.1V12.2H12.2z M54.9,36.6v6.1H6.1v-6.1H54.9z M18.3,6.1v6.1h-6.1
		V6.1H18.3z M18.3,24.4v6.1h-6.1v-6.1H18.3z M30.5,0v6.1H18.3V0H30.5z M36.6,6.1v6.1h-6.1V6.1H36.6z M36.6,18.3v6.1h-6.1v-6.1H36.6z
		 M48.8,12.2v6.1H36.6v-6.1H48.8z M54.9,18.3v6.1h-6.1v-6.1H54.9z M61,24.4v12.2h-6.1V24.4H61z"/>
</g>
</svg>
