<?xml version="1.0" encoding="utf-8"?>
<!-- Generator: Adobe Illustrator 27.3.1, SVG Export Plug-In . SVG Version: 6.00 Build 0)  -->
<svg version="1.1" id="Lager_1" xmlns="http://www.w3.org/2000/svg" xmlns:xlink="http://www.w3.org/1999/xlink" x="0px" y="0px"
	 viewBox="0 0 48.8 48.8" style="enable-background:new 0 0 48.8 48.8;" xml:space="preserve">
<style type="text/css">
	.st0{fill:#FFFFFF;}
	.st1{fill:#1D1E1C;}
	.st2{fill:#161616;}
	.st3{fill:none;stroke:#FFFFFF;stroke-width:0.15;stroke-miterlimit:10;}
	.st4{fill:#F4F4F4;}
	.st5{fill:none;stroke:#FFFFFF;stroke-width:0.25;stroke-miterlimit:10;}
	.st6{fill:#6300FF;}
	.st7{fill:#C3EEC3;}
	.st8{fill:#161616;stroke:#FFFFFF;stroke-width:0.25;stroke-miterlimit:10;}
	.st9{fill:#1D1D1B;}
</style>
<path class="st7" d="M6.1,12.2v18.3H0V12.2H6.1z M6.1,42.7h6.1v6.1H0V36.6h6.1V42.7z M12.2,12.2H6.1V6.1h6.1V12.2z M18.3,36.6h12.2
	v6.1H12.2v-6.1H6.1v-6.1h12.2V36.6z M30.5,6.1H12.2V0h18.3V6.1z M18.3,24.4h6.1v6.1h-6.1V24.4z M24.4,18.3h6.1v6.1h-6.1V18.3z
	 M36.6,12.2h6.1v18.3h-6.1V18.3h-6.1V6.1h6.1V12.2z M30.5,30.5h6.1v6.1h-6.1V30.5z M48.8,0v12.2h-6.1V6.1h-6.1V0H48.8z"/>
</svg>
