{
  "asset": {
    "version": "2.0",
    "generator": "THREE.GLTFExporter"
  },
  "scenes": [
    {
      "name": "Scene",
      "nodes": [
        0,
        1,
        2,
        4,
        5,
        6,
        7,
        8,
        9,
        10
      ]
    }
  ],
  "scene": 0,
  "nodes": [
    {
      "matrix": [
        1,
        0,
        0,
        0,
        0,
        1,
        0,
        0,
        0,
        0,
        1,
        0,
        5,
        2.06,
        0.04,
        1
      ],
      "name": "DirectionalLight",
      "extensions": {
        "KHR_lights_punctual": {
          "light": 0
        }
      }
    },
    {
      "matrix": [
        0.9894397670770254,
        0.09214649477369424,
        0.11188373799388056,
        0,
        -0.0828616983124467,
        0.9929307644966111,
        -0.08498491553770983,
        0,
        -0.11892386757644084,
        0.07481657849097456,
        0.9900805993976274,
        0,
        0.091,
        1.995,
        0.86,
        1
      ],
      "name": "Sphere",
      "mesh": 0
    },
    {
      "matrix": [
        0.9997806834748455,
        0,
        0.020942419883356957,
        0,
        0,
        1,
        0,
        0,
        -0.020942419883356957,
        0,
        0.9997806834748455,
        0,
        -0.26,
        3.266,
        3.383,
        1
      ],
      "name": "Camera",
      "camera": 0
    },
    {
      "name": "Astronaut_mesh",
      "extras": {
        "name": "Astronaut_mesh"
      },
      "mesh": 1
    },
    {
      "matrix": [
        0.11805157853366326,
        0.04368252674484786,
        0.155420917713466,
        0,
        -0.056055010788172016,
        0.19165178847664302,
        -0.011288389576994795,
        0,
        -0.15139901113035137,
        -0.03689754505234373,
        0.12536710333202253,
        0,
        1.32,
        2.840237673740642,
        0.5,
        1
      ],
      "name": "Astronaut.glb",
      "children": [
        3
      ]
    },
    {
      "matrix": [
        0.9602410321648613,
        -0.278991106039229,
        0.010055988164602934,
        0,
        0.27897580877986883,
        0.9602936856769431,
        0.002921534632795448,
        0,
        -0.010471784116245799,
        1.734723475976807e-18,
        0.9999451693655121,
        0,
        -4.7,
        7.16,
        -12.1,
        1
      ],
      "name": "Icosahedron",
      "mesh": 2
    },
    {
      "matrix": [
        0.1,
        0,
        0,
        0,
        0,
        0.1,
        0,
        0,
        0,
        0,
        0.1,
        0,
        -25.313,
        13.365,
        -15.64,
        1
      ],
      "name": "Icosahedron",
      "mesh": 3
    },
    {
      "matrix": [
        1,
        0,
        0,
        0,
        0,
        1,
        0,
        0,
        0,
        0,
        1,
        0,
        9.36,
        7.36,
        -11.34,
        1
      ],
      "name": "Icosahedron",
      "mesh": 4
    },
    {
      "matrix": [
        1,
        0,
        0,
        0,
        0,
        1,
        0,
        0,
        0,
        0,
        1,
        0,
        39.815243183660876,
        6.0662935530315725,
        -7.54,
        1
      ],
      "name": "DirectionalLight",
      "extensions": {
        "KHR_lights_punctual": {
          "light": 1
        }
      }
    },
    {
      "matrix": [
        0.3394959231616079,
        0.03347113733292619,
        -0.20885928545862648,
        0,
        -0.022806615346283303,
        0.3188777149598414,
        0.014030723375393817,
        0,
        0.5239859059700792,
        0,
        0.8517269341430476,
        0,
        0.66,
        3.38,
        2.96,
        1
      ],
      "name": "Tube",
      "mesh": 5
    },
    {
      "matrix": [
        1,
        0,
        0,
        0,
        0,
        1,
        0,
        0,
        0,
        0,
        1,
        0,
        -12.6,
        -0.92,
        13.76,
        1
      ],
      "name": "SpotLight",
      "extensions": {
        "KHR_lights_punctual": {
          "light": 2
        }
      }
    }
  ],
  "extensions": {
    "KHR_lights_punctual": {
      "lights": [
        {
          "name": "DirectionalLight",
          "color": [
            0.12477181755144427,
            0,
            0.9911020971136257
          ],
          "intensity": 0.5,
          "type": "directional"
        },
        {
          "name": "DirectionalLight",
          "color": [
            0.7529422167708612,
            0,
            0.9911020971136257
          ],
          "intensity": 0,
          "type": "directional"
        },
        {
          "name": "SpotLight",
          "color": [
            0.9911020971136257,
            0,
            0.3005437944049895
          ],
          "intensity": 0.01,
          "type": "spot",
          "spot": {
            "innerConeAngle": 0,
            "outerConeAngle": 0.194
          }
        }
      ]
    }
  },
  "bufferViews": [
    {
      "buffer": 0,
      "byteOffset": 0,
      "byteLength": 35100,
      "target": 34962,
      "byteStride": 12
    },
    {
      "buffer": 0,
      "byteOffset": 35100,
      "byteLength": 35100,
      "target": 34962,
      "byteStride": 12
    },
    {
      "buffer": 0,
      "byteOffset": 70200,
      "byteLength": 23400,
      "target": 34962,
      "byteStride": 8
    },
    {
      "buffer": 0,
      "byteOffset": 93600,
      "byteLength": 33264,
      "target": 34963
    },
    {
      "buffer": 0,
      "byteOffset": 126864,
      "byteLength": 39048,
      "target": 34962,
      "byteStride": 12
    },
    {
      "buffer": 0,
      "byteOffset": 165912,
      "byteLength": 39048,
      "target": 34962,
      "byteStride": 12
    },
    {
      "buffer": 0,
      "byteOffset": 204960,
      "byteLength": 26032,
      "target": 34962,
      "byteStride": 8
    },
    {
      "buffer": 0,
      "byteOffset": 230992,
      "byteLength": 19248,
      "target": 34963
    },
    {
      "buffer": 0,
      "byteOffset": 250240,
      "byteLength": 720,
      "target": 34962,
      "byteStride": 12
    },
    {
      "buffer": 0,
      "byteOffset": 250960,
      "byteLength": 720,
      "target": 34962,
      "byteStride": 12
    },
    {
      "buffer": 0,
      "byteOffset": 251680,
      "byteLength": 480,
      "target": 34962,
      "byteStride": 8
    },
    {
      "buffer": 0,
      "byteOffset": 252160,
      "byteLength": 720,
      "target": 34962,
      "byteStride": 12
    },
    {
      "buffer": 0,
      "byteOffset": 252880,
      "byteLength": 720,
      "target": 34962,
      "byteStride": 12
    },
    {
      "buffer": 0,
      "byteOffset": 253600,
      "byteLength": 480,
      "target": 34962,
      "byteStride": 8
    },
    {
      "buffer": 0,
      "byteOffset": 254080,
      "byteLength": 720,
      "target": 34962,
      "byteStride": 12
    },
    {
      "buffer": 0,
      "byteOffset": 254800,
      "byteLength": 720,
      "target": 34962,
      "byteStride": 12
    },
    {
      "buffer": 0,
      "byteOffset": 255520,
      "byteLength": 480,
      "target": 34962,
      "byteStride": 8
    },
    {
      "buffer": 0,
      "byteOffset": 256000,
      "byteLength": 7020,
      "target": 34962,
      "byteStride": 12
    },
    {
      "buffer": 0,
      "byteOffset": 263020,
      "byteLength": 7020,
      "target": 34962,
      "byteStride": 12
    },
    {
      "buffer": 0,
      "byteOffset": 270040,
      "byteLength": 4680,
      "target": 34962,
      "byteStride": 8
    },
    {
      "buffer": 0,
      "byteOffset": 274720,
      "byteLength": 6144,
      "target": 34963
    }
  ],
  "buffers": [
    {
      "byteLength": 280864,
      "uri": "data:application/octet-stream;base64,"
    }
  ],
  "accessors": [
    {
      "bufferView": 0,
      "componentType": 5126,
      "count": 2925,
      "max": [
        1,
        1,
        1
      ],
      "min": [
        -1,
        -1,
        -1
      ],
      "type": "VEC3"
    },
    {
      "bufferView": 1,
      "componentType": 5126,
      "count": 2925,
      "max": [
        1,
        1,
        1
      ],
      "min": [
        -1,
        -1,
        -1
      ],
      "type": "VEC3"
    },
    {
      "bufferView": 2,
      "componentType": 5126,
      "count": 2925,
      "max": [
        1.0113636255264282,
        1
      ],
      "min": [
        -0.011363636702299118,
        0
      ],
      "type": "VEC2"
    },
    {
      "bufferView": 3,
      "componentType": 5123,
      "count": 16632,
      "max": [
        2924
      ],
      "min": [
        0
      ],
      "type": "SCALAR"
    },
    {
      "bufferView": 4,
      "componentType": 5126,
      "count": 3254,
      "max": [
        1.1198134422302246,
        4.021694183349609,
        0.7112578749656677
      ],
      "min": [
        -1.1196980476379395,
        0,
        -0.7358450293540955
      ],
      "type": "VEC3"
    },
    {
      "bufferView": 5,
      "componentType": 5126,
      "count": 3254,
      "max": [
        1,
        1,
        1
      ],
      "min": [
        -1,
        -1,
        -1
      ],
      "type": "VEC3"
    },
    {
      "bufferView": 6,
      "componentType": 5126,
      "count": 3254,
      "max": [
        0.9918590188026428,
        0.9968580007553101
      ],
      "min": [
        0.007249000016599894,
        0.006200000178068876
      ],
      "type": "VEC2"
    },
    {
      "bufferView": 7,
      "componentType": 5125,
      "count": 4812,
      "max": [
        3253
      ],
      "min": [
        0
      ],
      "type": "SCALAR"
    },
    {
      "bufferView": 8,
      "componentType": 5126,
      "count": 60,
      "max": [
        0.4083123803138733,
        0.4083123803138733,
        0.4083123803138733
      ],
      "min": [
        -0.4083123803138733,
        -0.4083123803138733,
        -0.4083123803138733
      ],
      "type": "VEC3"
    },
    {
      "bufferView": 9,
      "componentType": 5126,
      "count": 60,
      "max": [
        0.9341723322868347,
        0.9341723322868347,
        0.9341723322868347
      ],
      "min": [
        -0.9341723322868347,
        -0.9341723322868347,
        -0.9341723322868347
      ],
      "type": "VEC3"
    },
    {
      "bufferView": 10,
      "componentType": 5126,
      "count": 60,
      "max": [
        1.0881041288375854,
        0.8237918019294739
      ],
      "min": [
        0,
        0.17620819807052612
      ],
      "type": "VEC2"
    },
    {
      "bufferView": 11,
      "componentType": 5126,
      "count": 60,
      "max": [
        0.8506507873535156,
        0.8506507873535156,
        0.8506507873535156
      ],
      "min": [
        -0.8506507873535156,
        -0.8506507873535156,
        -0.8506507873535156
      ],
      "type": "VEC3"
    },
    {
      "bufferView": 12,
      "componentType": 5126,
      "count": 60,
      "max": [
        0.9341723322868347,
        0.9341723322868347,
        0.9341723322868347
      ],
      "min": [
        -0.9341723322868347,
        -0.9341723322868347,
        -0.9341723322868347
      ],
      "type": "VEC3"
    },
    {
      "bufferView": 13,
      "componentType": 5126,
      "count": 60,
      "max": [
        1.0881041288375854,
        0.8237918019294739
      ],
      "min": [
        0,
        0.17620819807052612
      ],
      "type": "VEC2"
    },
    {
      "bufferView": 14,
      "componentType": 5126,
      "count": 60,
      "max": [
        0.8506507873535156,
        0.8506507873535156,
        0.8506507873535156
      ],
      "min": [
        -0.8506507873535156,
        -0.8506507873535156,
        -0.8506507873535156
      ],
      "type": "VEC3"
    },
    {
      "bufferView": 15,
      "componentType": 5126,
      "count": 60,
      "max": [
        0.9341723322868347,
        0.9341723322868347,
        0.9341723322868347
      ],
      "min": [
        -0.9341723322868347,
        -0.9341723322868347,
        -0.9341723322868347
      ],
      "type": "VEC3"
    },
    {
      "bufferView": 16,
      "componentType": 5126,
      "count": 60,
      "max": [
        1.0881041288375854,
        0.8237918019294739
      ],
      "min": [
        0,
        0.17620819807052612
      ],
      "type": "VEC2"
    },
    {
      "bufferView": 17,
      "componentType": 5126,
      "count": 585,
      "max": [
        4.9789628982543945,
        -0.3199999928474426,
        -1.9537287950515747
      ],
      "min": [
        4.33172082901001,
        -3.6882894039154053,
        -2.317553997039795
      ],
      "type": "VEC3"
    },
    {
      "bufferView": 18,
      "componentType": 5126,
      "count": 585,
      "max": [
        0.9984607696533203,
        0.7735706567764282,
        0.9984607696533203
      ],
      "min": [
        -0.9984607696533203,
        -0.7735706567764282,
        -0.9984607696533203
      ],
      "type": "VEC3"
    },
    {
      "bufferView": 19,
      "componentType": 5126,
      "count": 585,
      "max": [
        1,
        1
      ],
      "min": [
        0,
        0
      ],
      "type": "VEC2"
    },
    {
      "bufferView": 20,
      "componentType": 5123,
      "count": 3072,
      "max": [
        584
      ],
      "min": [
        0
      ],
      "type": "SCALAR"
    }
  ],
  "materials": [
    {
      "pbrMetallicRoughness": {
        "baseColorFactor": [
          0.9911020971136257,
          0.9911020971136257,
          0.9911020971136257,
          1
        ],
        "metallicFactor": 0,
        "roughnessFactor": 1
      },
      "extensions": {
        "KHR_materials_emissive_strength": {
          "emissiveStrength": 30
        }
      }
    },
    {
      "pbrMetallicRoughness": {
        "baseColorFactor": [
          0.9911020971136257,
          0.9911020971136257,
          0.9911020971136257,
          1
        ],
        "metallicFactor": 0,
        "roughnessFactor": 1,
        "baseColorTexture": {
          "index": 0
        }
      },
      "name": "Astronaut_mat"
    },
    {
      "pbrMetallicRoughness": {
        "baseColorFactor": [
          0.9911020971136257,
          0.9911020971136257,
          0.9911020971136257,
          1
        ],
        "metallicFactor": 0,
        "roughnessFactor": 1
      }
    },
    {
      "pbrMetallicRoughness": {
        "baseColorFactor": [
          0.9911020971136257,
          0.9911020971136257,
          0.9911020971136257,
          1
        ],
        "metallicFactor": 0.5,
        "roughnessFactor": 0.5
      },
      "emissiveFactor": [
        0.9911020971136257,
        0.9911020971136257,
        0.9911020971136257
      ]
    },
    {
      "pbrMetallicRoughness": {
        "baseColorFactor": [
          0.9911020971136257,
          0.9911020971136257,
          0.9911020971136257,
          1
        ],
        "metallicFactor": 0,
        "roughnessFactor": 1
      }
    },
    {
      "pbrMetallicRoughness": {
        "baseColorFactor": [
          0.8713671191959567,
          0.8713671191959567,
          0.8713671191959567,
          1
        ],
        "metallicFactor": 0,
        "roughnessFactor": 0
      },
      "emissiveFactor": [
        0.8307698767709715,
        0.8307698767709715,
        0.8307698767709715
      ]
    }
  ],
  "meshes": [
    {
      "primitives": [
        {
          "mode": 4,
          "attributes": {
            "POSITION": 0,
            "NORMAL": 1,
            "TEXCOORD_0": 2
          },
          "indices": 3,
          "material": 0
        }
      ]
    },
    {
      "primitives": [
        {
          "mode": 4,
          "attributes": {
            "POSITION": 4,
            "NORMAL": 5,
            "TEXCOORD_0": 6
          },
          "indices": 7,
          "material": 1
        }
      ]
    },
    {
      "primitives": [
        {
          "mode": 4,
          "attributes": {
            "POSITION": 8,
            "NORMAL": 9,
            "TEXCOORD_0": 10
          },
          "material": 2
        }
      ]
    },
    {
      "primitives": [
        {
          "mode": 4,
          "attributes": {
            "POSITION": 11,
            "NORMAL": 12,
            "TEXCOORD_0": 13
          },
          "material": 3
        }
      ]
    },
    {
      "primitives": [
        {
          "mode": 4,
          "attributes": {
            "POSITION": 14,
            "NORMAL": 15,
            "TEXCOORD_0": 16
          },
          "material": 4
        }
      ]
    },
    {
      "primitives": [
        {
          "mode": 4,
          "attributes": {
            "POSITION": 17,
            "NORMAL": 18,
            "TEXCOORD_0": 19
          },
          "indices": 20,
          "material": 5
        }
      ]
    }
  ],
  "cameras": [
    {
      "type": "perspective",
      "perspective": {
        "aspectRatio": 1.6356275303643724,
        "yfov": 0.8726646259971648,
        "zfar": 2000,
        "znear": 0.1
      },
      "name": "PerspectiveCamera"
    }
  ],
  "textures": [
    {
      "sampler": 0,
      "source": 0,
      "name": "Astronaut_BaseColor"
    }
  ],
  "samplers": [
    {
      "magFilter": 9729,
      "minFilter": 9986,
      "wrapS": 10497,
      "wrapT": 10497
    }
  ],
  "images": [
    {
      "mimeType": "image/png",
      "uri": "data:image/png;base64,"
    }
  ],
  "extensionsUsed": [
    "KHR_lights_punctual",
    "KHR_materials_emissive_strength"
  ]
}