<?xml version="1.0" standalone="no"?>
<!DOCTYPE svg PUBLIC "-//W3C//DTD SVG 20010904//EN"
 "http://www.w3.org/TR/2001/REC-SVG-20010904/DTD/svg10.dtd">
<svg version="1.0" xmlns="http://www.w3.org/2000/svg"
 width="700.000000pt" height="700.000000pt" viewBox="0 0 700.000000 700.000000"
 preserveAspectRatio="xMidYMid meet">
<metadata>
Created by potrace 1.14, written by Peter Selinger 2001-2017
</metadata>
<g transform="translate(0.000000,700.000000) scale(0.100000,-0.100000)"
fill="#000000" stroke="none">
<path d="M0 3500 l0 -3500 3500 0 3500 0 0 3500 0 3500 -3500 0 -3500 0 0
-3500z m3950 2425 c1002 -125 1622 -709 1699 -1600 7 -76 11 -668 11 -1617 l0
-1498 -495 0 -496 0 6 33 c3 17 23 169 45 337 22 168 42 320 45 338 6 30 4 32
-22 31 -22 0 -38 -13 -78 -65 -64 -83 -217 -238 -311 -315 -120 -98 -260 -186
-419 -264 -331 -163 -658 -235 -1062 -235 -348 0 -614 56 -866 181 -355 177
-571 454 -644 829 -20 106 -23 355 -4 460 104 586 586 956 1522 1169 147 33
397 76 1308 222 l584 94 -6 155 c-7 171 -27 283 -75 402 -123 307 -380 508
-752 588 -360 78 -794 34 -1081 -111 -128 -64 -195 -113 -299 -219 -153 -155
-254 -344 -310 -577 l-22 -93 -444 0 -444 0 6 43 c52 373 142 622 317 880 298
438 810 732 1432 822 259 37 602 41 855 10z"/>
<path d="M4105 3330 c-748 -118 -913 -148 -1075 -195 -425 -122 -648 -295
-715 -552 -23 -86 -20 -249 6 -345 43 -159 159 -297 319 -378 276 -140 766
-134 1153 16 207 79 366 183 527 344 266 264 419 611 460 1036 16 173 16 174
-22 173 -18 -1 -312 -45 -653 -99z"/>
</g>
</svg>
