<svg width="314" height="401" viewBox="0 0 314 401" fill="none" xmlns="http://www.w3.org/2000/svg">
<path d="M149.5 282V398.5" stroke="black" stroke-width="2" stroke-miterlimit="10" stroke-dasharray="2 6"/>
<path d="M15.8 134.02C11.89 132.61 12.04 128.5 3.76999 122ZM15.8 134.02C11.79 129.54 8.19999 126.95 3.76999 122ZM27.11 134.02C19.41 126.39 10.76 116.94 4.47999 111.39ZM27.11 134.02C21.54 128.91 15.65 121.88 4.47999 111.39ZM27.11 122.7C19.7 116.61 14.45 111.25 10.14 105.73ZM27.11 122.7C22.94 118.15 18.17 114.4 10.14 105.73ZM27.11 111.39C25.94 110.73 24.78 108.83 22.16 106.44ZM27.11 111.39C25.5 109.96 24.44 109.1 22.16 106.44Z" stroke="#1BA1E2" stroke-width="4" stroke-miterlimit="10" stroke-linecap="round" stroke-linejoin="round"/>
<path d="M7.23 109C10.51 107.36 12.59 109.73 23.67 109M7.23 109C11.07 109.23 16.21 109.57 23.67 109M7.23 109C5.47 109.03 4.29 109.52 3.7 112.53M7.23 109C5.86 107.74 4.8 109.42 3.7 112.53M23.67 109C27.9 107.83 26.92 110.29 27.2 112.53M23.67 109C25.48 109.41 28.68 107.9 27.2 112.53M27.2 112.53C27.07 119.87 28.51 128.03 27.2 131.47M27.2 112.53C26.55 118.26 27.85 124.36 27.2 131.47M27.2 131.47C26.53 132.82 27.81 134.21 23.67 135M27.2 131.47C28.91 134.3 26.29 136.58 23.67 135M23.67 135C21.35 135.86 18.21 135.66 7.23 135M23.67 135C17.82 134.96 10.57 135.3 7.23 135M7.23 135C6.23 135.19 4.98 135.57 3.7 131.47M7.23 135C7.17 136.65 1.81 132.76 3.7 131.47M3.7 131.47C1.99 125.49 2.25 116.35 3.7 112.53M3.7 131.47C4.8 125.23 3.02 121.46 3.7 112.53" stroke="black" stroke-width="2" stroke-miterlimit="10" stroke-linecap="round" stroke-linejoin="round"/>
<path d="M52.69 139.55C49.1 133.61 43.68 130.08 40.67 127.53ZM52.69 139.55C50.56 137.2 47.81 135.05 40.67 127.53ZM61.17 136.72C60.16 134.83 56.49 132.46 46.32 121.87ZM61.17 136.72C58.85 132.77 55.53 129.77 46.32 121.87Z" stroke="#33FF33" stroke-width="4" stroke-miterlimit="10" stroke-linecap="round" stroke-linejoin="round"/>
<path d="M42.95 125C48.98 125.35 53.67 125.75 56.95 125M42.95 125C46.96 124.53 50.72 124.46 56.95 125M42.95 125C41.26 123.42 40.77 126.96 40.7 127.25M42.95 125C39.43 123.28 41.29 125.46 40.7 127.25M56.95 125C59.82 123.56 58.84 125.11 59.2 127.25M56.95 125C59.83 123.88 57.53 124.87 59.2 127.25M59.2 127.25C59.81 130.77 58.72 135.38 59.2 137.75M59.2 127.25C58.84 129.99 59.19 132.43 59.2 137.75M59.2 137.75C57.29 141 59.24 140.37 56.95 140M59.2 137.75C58.11 139.23 58.13 139.57 56.95 140M56.95 140C51.91 141.11 50.49 138.98 42.95 140M56.95 140C53.28 139.49 51.3 139.66 42.95 140M42.95 140C42.1 141.7 39.71 138.62 40.7 137.75M42.95 140C39.9 139.94 38.74 137.36 40.7 137.75M40.7 137.75C41.17 135.55 39.97 132.47 40.7 127.25M40.7 137.75C40.4 134.92 40.2 133.29 40.7 127.25" stroke="black" stroke-width="2" stroke-miterlimit="10" stroke-linecap="round" stroke-linejoin="round"/>
<path d="M26.48 164.34C21.09 159.35 19.35 154.87 14.46 152.32ZM26.48 164.34C23.28 160.17 18.48 156.61 14.46 152.32ZM37.8 164.34C32.8 159.21 25.76 152.06 20.12 146.67ZM37.8 164.34C31.35 157.09 25.51 151.76 20.12 146.67ZM46.99 162.22C42.49 157.36 36.3 151.93 31.43 146.67ZM46.99 162.22C42.48 156.82 36.64 153.57 31.43 146.67Z" stroke="#FF6666" stroke-width="4" stroke-miterlimit="10" stroke-linecap="round" stroke-linejoin="round"/>
<path d="M16.95 150C24.03 150.43 34.29 149.27 42.45 150M16.95 150C22.12 151.15 29.17 149.7 42.45 150M16.95 150C13.89 150.56 16.38 150.92 14.7 152.25M16.95 150C15.02 148.54 16.13 151.45 14.7 152.25M42.45 150C45.05 148.17 44.85 151.55 44.7 152.25M42.45 150C43.8 151.44 42.86 150.71 44.7 152.25M44.7 152.25C44.85 155.48 44.37 159.45 44.7 162.75M44.7 152.25C44.78 156.52 44.37 159.8 44.7 162.75M44.7 162.75C46.24 165.2 43.63 165.75 42.45 165M44.7 162.75C44.78 165.21 44.8 165.99 42.45 165M42.45 165C36.3 164.99 30.48 163.83 16.95 165M42.45 165C32.53 164.47 21.79 163.99 16.95 165M16.95 165C16.57 165.71 14.76 164.42 14.7 162.75M16.95 165C15.2 164.73 14.08 165.59 14.7 162.75M14.7 162.75C15.1 160.23 15.52 156.27 14.7 152.25M14.7 162.75C14.17 160.69 14.7 157.73 14.7 152.25" stroke="black" stroke-width="2" stroke-miterlimit="10" stroke-linecap="round" stroke-linejoin="round"/>
<path d="M133.44 123.86C127.16 120.22 124.02 114.19 121.41 111.84ZM133.44 123.86C129.85 119.85 126.11 116.4 121.41 111.84ZM144.04 123.15C137.9 118.61 132.29 108.42 122.12 101.23ZM144.04 123.15C136.16 113.69 126.94 104.83 122.12 101.23ZM144.04 111.84C138.93 107.73 138.02 104.87 127.78 95.57ZM144.04 111.84C140.92 106.64 135.82 103.81 127.78 95.57ZM144.04 100.52C142.75 98.31 140.93 96.88 139.8 96.28ZM144.04 100.52C142.54 99.28 141.4 97.68 139.8 96.28Z" stroke="#1BA1E2" stroke-width="4" stroke-miterlimit="10" stroke-linecap="round" stroke-linejoin="round"/>
<path d="M124.53 98.5C127.11 96.85 132.31 97.79 140.97 98.5M124.53 98.5C128.6 98.55 133.16 98.46 140.97 98.5M124.53 98.5C123.25 96.71 122.31 99.04 121 102.03M124.53 98.5C120.2 98.74 120.89 99.23 121 102.03M140.97 98.5C141.4 99.9 143.31 99 144.5 102.03M140.97 98.5C144.15 97.66 146.56 99.42 144.5 102.03M144.5 102.03C144.88 108.05 143.73 113.67 144.5 120.97M144.5 102.03C144.13 107.7 144.68 113.1 144.5 120.97M144.5 120.97C144.29 125.01 143.86 124.51 140.97 124.5M144.5 120.97C143.2 121.31 143.06 125.04 140.97 124.5M140.97 124.5C136.9 124.84 133.6 123.65 124.53 124.5M140.97 124.5C136.88 125.01 134.44 124.98 124.53 124.5M124.53 124.5C121.87 124.8 122.96 122.33 121 120.97M124.53 124.5C120.39 122.33 122.14 123.78 121 120.97M121 120.97C119.87 118.18 120.74 111.63 121 102.03M121 120.97C121.97 114.98 122.02 107.2 121 102.03" stroke="black" stroke-width="2" stroke-miterlimit="10" stroke-linecap="round" stroke-linejoin="round"/>
<path d="M169.62 128.68C168.56 125.83 163.37 124.15 158.31 117.37ZM169.62 128.68C166.12 125.06 163.6 121.93 158.31 117.37ZM178.81 126.56C174.53 121.65 169.34 119.4 163.26 111.01ZM178.81 126.56C175.34 122.24 172.15 119.29 163.26 111.01Z" stroke="#33FF33" stroke-width="4" stroke-miterlimit="10" stroke-linecap="round" stroke-linejoin="round"/>
<path d="M160.25 114.5C166.34 114.3 171.26 113.47 174.25 114.5M160.25 114.5C162.76 115.29 166.46 114.68 174.25 114.5M160.25 114.5C157.62 112.72 157 114.79 158 116.75M160.25 114.5C157.51 116.66 156.64 116.7 158 116.75M174.25 114.5C174.89 115.93 175.54 113.98 176.5 116.75M174.25 114.5C175.67 113.19 174.55 113.84 176.5 116.75M176.5 116.75C176.8 120.57 177.19 125 176.5 127.25M176.5 116.75C176.62 119.85 176.56 123.39 176.5 127.25M176.5 127.25C175.51 130.15 177.62 129.76 174.25 129.5M176.5 127.25C177.08 129.61 175.22 131.34 174.25 129.5M174.25 129.5C169.36 130.16 163.2 128.21 160.25 129.5M174.25 129.5C169.43 129.95 164.11 130.14 160.25 129.5M160.25 129.5C158.97 129.12 158.51 128.11 158 127.25M160.25 129.5C159.78 130.96 158.61 130.5 158 127.25M158 127.25C158.65 124.66 157.29 122.14 158 116.75M158 127.25C158.21 124.44 157.54 121.25 158 116.75" stroke="black" stroke-width="2" stroke-miterlimit="10" stroke-linecap="round" stroke-linejoin="round"/>
<path d="M144.12 154.18C142.35 152.51 138.84 149.17 132.1 142.16ZM144.12 154.18C141.72 150.5 138.4 148.98 132.1 142.16ZM155.44 154.18C150.71 150.58 147.64 145.97 137.76 136.51ZM155.44 154.18C150.1 148.47 144.7 143.17 137.76 136.51ZM163.92 151.35C158.87 146.38 154.15 142.26 149.07 136.51ZM163.92 151.35C158.61 146.88 152.67 140.56 149.07 136.51Z" stroke="#FF6666" stroke-width="4" stroke-miterlimit="10" stroke-linecap="round" stroke-linejoin="round"/>
<path d="M134.25 139.5C143.2 141.36 152.64 141.5 159.75 139.5M134.25 139.5C142.52 139.54 152.26 138.83 159.75 139.5M134.25 139.5C131.43 138.65 130.85 138.47 132 141.75M134.25 139.5C132.3 140.67 133.03 142.32 132 141.75M159.75 139.5C159.5 139.46 163.57 141.63 162 141.75M159.75 139.5C159.43 140.68 162.9 142.31 162 141.75M162 141.75C162.03 144.47 162.65 146.72 162 152.25M162 141.75C162.43 145.35 162 149.78 162 152.25M162 152.25C162.3 155.4 161.71 153.85 159.75 154.5M162 152.25C163.78 153.23 162.01 154.94 159.75 154.5M159.75 154.5C151.97 155.94 141.86 155.98 134.25 154.5M159.75 154.5C150.51 154.93 141.94 155.23 134.25 154.5M134.25 154.5C132.91 153.3 133.1 154.95 132 152.25M134.25 154.5C134.07 152.62 133.66 153.47 132 152.25M132 152.25C131.37 149.69 132.51 144.66 132 141.75M132 152.25C131.73 149.16 131.64 146.96 132 141.75" stroke="black" stroke-width="2" stroke-miterlimit="10" stroke-linecap="round" stroke-linejoin="round"/>
<path d="M263.94 133.36C262.44 131.89 258.59 127.99 252.63 122.05ZM263.94 133.36C260.27 129.97 257.9 127.24 252.63 122.05ZM275.25 133.36C268.67 126.1 260.58 117.95 252.63 110.73ZM275.25 133.36C267.5 125.12 258.97 115.69 252.63 110.73ZM275.25 122.05C270.84 117.61 266.89 114.38 258.28 105.08ZM275.25 122.05C270.21 116.38 264.31 112.94 258.28 105.08ZM275.25 110.73C273.53 110.38 273.49 109 270.3 105.78ZM275.25 110.73C273.96 109.12 271.9 107.32 270.3 105.78Z" stroke="#1BA1E2" stroke-width="4" stroke-miterlimit="10" stroke-linecap="round" stroke-linejoin="round"/>
<path d="M255.53 108.5C259.69 107.17 263.88 107.07 271.97 108.5M255.53 108.5C262.76 108.54 267.94 108.74 271.97 108.5M255.53 108.5C251.69 110.12 250.92 111.6 252 112.03M255.53 108.5C254.48 110.25 250.6 108.2 252 112.03M271.97 108.5C275.46 106.68 275.46 108.43 275.5 112.03M271.97 108.5C272.38 110.1 274.22 108.81 275.5 112.03M275.5 112.03C276.39 119.84 276.12 127.06 275.5 130.97M275.5 112.03C274.68 117.47 275.89 122.03 275.5 130.97M275.5 130.97C277.07 135.14 272.5 135.45 271.97 134.5M275.5 130.97C275.35 133.68 276.18 133.44 271.97 134.5M271.97 134.5C267.82 133.65 261.42 133.23 255.53 134.5M271.97 134.5C268.26 135.22 263.64 134.77 255.53 134.5M255.53 134.5C254.21 132.7 252.27 133.97 252 130.97M255.53 134.5C252.61 132.49 251.16 133.21 252 130.97M252 130.97C251.49 124.3 253.15 118.95 252 112.03M252 130.97C252.16 125.69 251.3 120.66 252 112.03" stroke="black" stroke-width="2" stroke-miterlimit="10" stroke-linecap="round" stroke-linejoin="round"/>
<path d="M300.83 138.89C298.34 135.29 296.26 132.98 288.81 126.87ZM300.83 138.89C298.26 135.21 293.4 132.43 288.81 126.87ZM309.32 136.07C305.53 129.38 298.84 126.15 294.47 121.22ZM309.32 136.07C306.22 133.36 302.03 130.14 294.47 121.22Z" stroke="#33FF33" stroke-width="4" stroke-miterlimit="10" stroke-linecap="round" stroke-linejoin="round"/>
<path d="M291.25 124.5C297.38 123.98 302.49 125.51 305.25 124.5M291.25 124.5C295.09 123.95 297.89 124.86 305.25 124.5M291.25 124.5C291.06 122.55 287.15 124.25 289 126.75M291.25 124.5C290.05 124.25 290.69 125.34 289 126.75M305.25 124.5C306.51 123.43 309.25 125.08 307.5 126.75M305.25 124.5C306.42 123.95 308.08 123.42 307.5 126.75M307.5 126.75C307.29 129.56 307.62 132.58 307.5 137.25M307.5 126.75C307.67 129.52 307.27 132.25 307.5 137.25M307.5 137.25C308.04 139.87 307.08 139.68 305.25 139.5M307.5 137.25C306.66 140.31 305.13 137.63 305.25 139.5M305.25 139.5C301.03 140.76 297.81 139.5 291.25 139.5M305.25 139.5C302.03 139.19 298.24 138.86 291.25 139.5M291.25 139.5C291.22 140.66 288.31 137.3 289 137.25M291.25 139.5C291 137.58 287.06 140.66 289 137.25M289 137.25C288.59 132.67 289.62 128.5 289 126.75M289 137.25C288.91 134.25 289.53 130.64 289 126.75" stroke="black" stroke-width="2" stroke-miterlimit="10" stroke-linecap="round" stroke-linejoin="round"/>
<path d="M274.63 163.69C271.67 161.8 268.4 158.16 263.31 152.37ZM274.63 163.69C271.84 160.38 268.27 157.86 263.31 152.37ZM285.94 163.69C281.33 157.92 276.37 151.94 268.26 146.01ZM285.94 163.69C280.53 159.8 276.02 154.12 268.26 146.01ZM295.13 161.57C290.89 156.39 287.26 152.01 280.28 146.72ZM295.13 161.57C288.49 156.56 284 149.87 280.28 146.72Z" stroke="#FF6666" stroke-width="4" stroke-miterlimit="10" stroke-linecap="round" stroke-linejoin="round"/>
<path d="M265.25 149.5C276.09 150.8 281.89 149.36 290.75 149.5M265.25 149.5C273.88 149.21 280.83 150.44 290.75 149.5M265.25 149.5C264.36 149.35 263.22 148.93 263 151.75M265.25 149.5C263.19 148.7 260.89 149.49 263 151.75M290.75 149.5C291.75 147.71 293.89 148.31 293 151.75M290.75 149.5C290.79 148.61 292.82 150.7 293 151.75M293 151.75C293.19 154.63 292.07 157.83 293 162.25M293 151.75C292.86 154.21 293.35 156.26 293 162.25M293 162.25C291.39 163.02 290.92 164.63 290.75 164.5M293 162.25C294.56 165.18 292.33 165.14 290.75 164.5M290.75 164.5C285.66 165.98 280.93 163.61 265.25 164.5M290.75 164.5C281.84 163.57 271.52 164.15 265.25 164.5M265.25 164.5C264.24 164.07 264.44 165.19 263 162.25M265.25 164.5C263.83 163.54 264.5 164.34 263 162.25M263 162.25C262.31 159.43 262.92 156.26 263 151.75M263 162.25C263.1 158.19 263.32 154.84 263 151.75" stroke="black" stroke-width="2" stroke-miterlimit="10" stroke-linecap="round" stroke-linejoin="round"/>
<path d="M149.5 239L178 252.68V268.32L149.5 282L121 268.32V252.68L149.5 239Z" fill="#D5E8D4" stroke="#82B366" stroke-miterlimit="10"/>
<path d="M121 252.68L149.5 266.37M149.5 266.37L178 252.68M149.5 266.37V282" stroke="#82B366" stroke-miterlimit="10"/>
<path d="M55.56 68H11.62L0.5 48.62H66.9L55.56 68Z" fill="#4688F4"/>
<path d="M22.52 10H44.71L11.62 68L0.5 48.62L22.52 10Z" fill="#1AA260"/>
<path d="M22.52 10H44.71L66.9 48.62H44.48L22.52 10Z" fill="#FFCF48"/>
<path d="M22.52 10L33.58 29.48L27.73 39.73L22.52 10Z" fill="#229760"/>
<path d="M22.67 48.62L33.8 68H11.62L22.67 48.62Z" fill="#417BDA"/>
<path d="M241.5 11.47L276.95 2.73999L306.66 11.72V79.3L271.71 87.53L241.5 78.3V11.47Z" fill="#ABB4C5"/>
<path d="M271.71 20.2L241.5 11.47L276.95 2.73999L306.66 11.72L271.71 20.2Z" fill="#B8BFD1"/>
<path d="M271.71 87.53V20.2L306.66 11.72V79.3L271.71 87.53Z" fill="#5B6369"/>
<path d="M272.76 55.29C266.26 52.79 260.03 49.61 254.19 45.81C251.38 43.87 249 41.38 247.2 38.48C245.95 36.22 245.32 33.68 245.35 31.1C245.24 28.32 245.29 25.54 245.5 22.77C245.64 20.3 245.91 17.84 246.3 15.39C246.66 14.04 247.22 12.75 247.95 11.55C249.46 10.53 251.18 9.69001 253.04 9.06001C256.2 7.98001 259.42 7.07001 262.68 6.32001C266.07 5.41001 269.52 4.74001 273.01 4.32001C275.38 4.02001 277.77 3.94001 280.15 4.07001C284.03 4.35001 287.85 5.19001 291.48 6.56001L303.32 10.9C304.36 12.63 305.04 14.55 305.32 16.54C305.64 19.22 305.83 21.92 305.86 24.62C306.05 30.57 305.89 36.54 305.37 42.47C305.3 45.09 304.41 47.62 302.82 49.7C300.51 52.25 297.38 53.92 293.98 54.44C291.26 54.87 288.5 55.07 285.74 55.04L272.76 55.29Z" fill="white" fill-opacity="0.4"/>
<path d="M267.71 28.68L245 21.7V19.95L267.71 26.93V28.68ZM262.72 78.55L248.74 74.56V72.81L262.72 76.8V78.55Z" fill="#52595E"/>
<path d="M241.5 11.47L276.95 2.73999L306.66 11.72V79.3L271.71 87.53L241.5 78.3V11.47Z" stroke="black" stroke-width="0.6" stroke-miterlimit="10"/>
<path d="M312.54 96.56L309.12 97.64L278.53 88.65V46.95L282.85 45.69L312.54 53.96V96.56Z" fill="white" stroke="black" stroke-width="0.6" stroke-miterlimit="10"/>
<path d="M309.12 55.22V97.64L278.53 88.65V46.95L309.12 55.22Z" fill="#E4E6EC"/>
<path d="M312.54 96.56L309.12 97.64V55.22L312.54 53.96V96.56Z" fill="#838DA0"/>
<path d="M303.36 62.23L283.57 56.66V55.76L303.36 61.33V62.23ZM303.36 71.4L283.57 65.82V64.92L303.36 70.49V71.4ZM303.36 80.38L283.57 74.81V73.91L303.36 79.49V80.38ZM303.36 89.37L283.57 83.8V82.9L303.36 88.47V89.37Z" fill="black"/>
<path d="M312.54 96.56L309.12 97.64L278.53 88.65V46.95L282.85 45.69L312.54 53.96V96.56Z" stroke="black" stroke-width="0.6" stroke-miterlimit="10"/>
<path d="M294.05 81.3161C299.19 81.3161 303.357 77.1541 303.357 72.02C303.357 66.8859 299.19 62.724 294.05 62.724C288.91 62.724 284.743 66.8859 284.743 72.02C284.743 77.1541 288.91 81.3161 294.05 81.3161Z" fill="#008CCE"/>
<path d="M287.69 65.36C287.79 65.62 287.92 65.86 288.07 66.09C288.33 66.11 288.58 66.19 288.8 66.32C288.74 66.58 288.85 66.85 289.08 66.99C289.25 67.09 289.37 67.27 289.39 67.47C289.41 67.68 289.59 67.83 289.8 67.81C289.92 67.8 290.03 67.79 290.15 67.79C290.4 67.75 290.65 67.81 290.87 67.94L291.65 68.5C291.78 68.59 291.87 68.72 291.91 68.87C291.95 69.01 291.95 69.16 291.91 69.31C291.85 69.33 291.78 69.32 291.72 69.29C291.68 69.16 291.59 69.06 291.47 69C291.32 68.94 291.15 68.94 291 69C290.8 69.12 290.56 69.16 290.34 69.12C290.15 69.12 289.97 69.22 289.86 69.37C289.77 69.49 289.63 69.57 289.48 69.58C289.33 69.6 289.18 69.54 289.08 69.43C288.99 69.31 288.83 69.24 288.68 69.25C288.52 69.27 288.39 69.37 288.32 69.51C288.25 69.69 288.19 69.88 288.17 70.07C288.18 70.33 288.13 70.58 288.03 70.81C287.98 70.93 287.9 71.03 287.78 71.1C287.6 71.15 287.48 71.33 287.51 71.52C287.65 71.69 287.77 71.89 287.84 72.11C287.92 72.24 287.86 72.4 287.72 72.48C287.58 72.6 287.51 72.78 287.55 72.96C287.33 72.97 287.11 72.93 286.9 72.86C286.82 72.76 286.71 72.69 286.59 72.65C286.47 72.62 286.35 72.67 286.28 72.76C286.13 72.96 286.03 73.19 285.97 73.43C285.92 73.59 285.9 73.76 285.9 73.93C286.06 74.23 286.14 74.57 286.12 74.91L286.25 75.91C286.26 76.04 286.23 76.18 286.16 76.29C286.08 76.39 285.97 76.47 285.85 76.5C283.87 72.8 284.63 68.24 287.68 65.36H287.69Z" fill="#00527F"/>
<path d="M299.07 64.3C299.03 64.43 298.94 64.55 298.82 64.63C298.71 64.68 298.59 64.71 298.47 64.71L297.78 64.79C297.48 64.76 297.18 64.8 296.9 64.9C296.93 65 296.89 65.11 296.81 65.17C296.72 65.23 296.61 65.23 296.52 65.17C296.34 65.18 296.18 65.25 296.06 65.39C295.96 65.49 295.84 65.55 295.7 65.58C295.51 65.62 295.35 65.74 295.26 65.92C295.18 66.07 295.03 66.11 294.92 65.99C294.86 65.85 294.81 65.71 294.8 65.55C294.68 65.26 294.45 65.01 294.17 64.86C293.88 64.73 293.62 64.56 293.38 64.36C293.23 64.24 293.14 64.07 293.13 63.88C293.12 63.77 293.13 63.65 293.17 63.54C293.07 63.34 292.88 63.21 292.66 63.19C292.5 63.15 292.37 63.03 292.31 62.87C294.7 62.43 297.18 62.94 299.2 64.3H299.07Z" fill="#64AADC"/>
<path d="M302.97 74.53C302.95 74.24 302.84 73.97 302.66 73.74C302.47 73.73 302.28 73.82 302.18 73.99C302.03 74.21 301.8 74.36 301.53 74.4C301.35 74.2 301.38 73.91 301.62 73.74C301.77 73.51 301.81 73.22 301.72 72.96C301.69 72.85 301.65 72.74 301.59 72.65C301.42 72.47 301.29 72.26 301.22 72.02C301.05 72.12 300.85 72.11 300.7 71.98C300.55 71.85 300.47 71.62 300.49 71.39C300.5 71.12 300.4 70.86 300.21 70.66C300.22 70.23 300.09 69.81 299.83 69.47C299.57 69.2 299.22 69.05 298.85 69.03C298.54 69.03 298.28 68.85 298.27 68.62C298.27 68.39 298.51 68.2 298.82 68.19C299.29 68.24 299.77 68.23 300.23 68.15C300.69 68.1 301.13 67.96 301.53 67.75L301.97 67.14C303.32 69.36 303.68 72.04 302.97 74.53Z" fill="#0A79B9"/>
<path d="M302.03 76.85C301.82 77.12 301.54 77.33 301.22 77.45C300.96 77.52 300.79 77.75 300.77 78.01C300.74 78.1 300.72 78.06 300.69 77.88C300.67 77.7 300.65 77.41 300.65 77.07C300.68 76.75 300.8 76.45 300.99 76.19C301.19 76 301.37 75.79 301.53 75.56C301.6 75.42 301.54 75.25 301.4 75.19C301.26 75.12 301.1 75.17 301.03 75.31C300.79 75.59 300.58 75.88 300.4 76.19C300.09 76.65 299.65 76.84 299.23 76.69C298.97 76.57 298.69 76.5 298.41 76.5C298.25 76.57 298.14 76.68 298.13 76.8C298.12 76.91 298.2 77.03 298.34 77.11C298.58 77.18 298.79 77.33 298.91 77.55C299.11 77.88 298.71 78.23 297.95 78.39C297.42 78.4 296.9 78.5 296.4 78.68C296.11 78.95 295.91 79.3 295.83 79.68C295.74 79.85 295.27 79.98 294.7 80C294.29 79.94 293.88 79.96 293.48 80.06C293.15 80.18 292.77 80.12 292.5 79.9C292.44 79.76 292.31 79.66 292.15 79.65C292 79.64 291.86 79.72 291.78 79.85C291.7 79.98 291.7 80.14 291.78 80.27C291.91 80.5 292.18 80.63 292.44 80.58C292.63 80.48 292.87 80.43 293.1 80.46C293.25 80.5 293.36 80.58 293.42 80.69C293.5 80.75 293.66 80.81 293.87 80.83C294.07 80.85 294.3 80.85 294.49 80.81C294.8 80.72 295.2 80.66 295.62 80.65C295.92 80.63 296.2 80.59 296.44 80.52C296.67 80.35 296.96 80.26 297.25 80.27C297.42 80.23 297.55 80.19 297.63 80.14C297.75 80.06 297.89 80.01 298.03 80.02C298.1 80.07 298.13 80.16 298.1 80.24C298 80.38 297.88 80.5 297.76 80.6C299.54 79.83 301.03 78.52 302.03 76.85Z" fill="#266792"/>
<path d="M293.48 72.708C297.196 72.708 300.208 70.627 300.208 68.06C300.208 65.493 297.196 63.412 293.48 63.412C289.764 63.412 286.752 65.493 286.752 68.06C286.752 70.627 289.764 72.708 293.48 72.708Z" fill="white" fill-opacity="0.3"/>
<path d="M290.41 68.5989C291.487 68.5989 292.36 67.9636 292.36 67.18C292.36 66.3964 291.487 65.7612 290.41 65.7612C289.333 65.7612 288.46 66.3964 288.46 67.18C288.46 67.9636 289.333 68.5989 290.41 68.5989Z" fill="white" fill-opacity="0.4"/>
<path d="M294.05 81.3161C299.19 81.3161 303.357 77.1541 303.357 72.02C303.357 66.8859 299.19 62.724 294.05 62.724C288.91 62.724 284.743 66.8859 284.743 72.02C284.743 77.1541 288.91 81.3161 294.05 81.3161Z" stroke="black" stroke-width="0.24"/>
<path d="M33.7 69V213" stroke="black" stroke-width="2" stroke-miterlimit="10" stroke-dasharray="2 6"/>
<path d="M286.5 214.5H36.5" stroke="black" stroke-width="2" stroke-miterlimit="10" stroke-dasharray="2 6"/>
<path d="M284 99L286 213" stroke="black" stroke-width="2" stroke-miterlimit="10" stroke-dasharray="2 6"/>
<path d="M149.5 89.5V230.5" stroke="black" stroke-width="2" stroke-miterlimit="10" stroke-dasharray="2 6"/>
<path d="M190.75 282.23C190.75 284.41 189.03 286.01 186.44 286.01H183.39C180.88 286.01 179.62 284.28 179.62 282.37V281.51H174.27C174.02 285.78 172.15 290.5 170.13 290.5H145.47C144.04 290.5 142.6 288.9 141.65 284.89H122.53C119.87 284.89 118.27 282.59 118.27 280.6V268.07H112.7V282.53C112.7 283.56 111.31 284.1 110.58 284.1C109.26 284.1 108.25 283.28 108.25 282.49V245.02C108.25 243.99 109.44 243.4 110.48 243.4C111.61 243.4 112.7 244.18 112.7 245V259.66H118.27V246.44C118.27 244.08 120.11 241.77 122.56 241.77H131.63V240.34C131.63 238.5 133.21 237.09 134.9 236.45C134.47 236.18 133.86 235.46 133.86 234.76V231.68C133.93 230.84 134.82 230.5 135.54 230.5H159.5C160.42 230.5 161.7 231.04 161.7 231.71V234.75C161.7 235.42 160.72 236.24 160 236.54C160.89 237.08 161.7 238.21 161.7 240.32V241.77H169.8C172.15 241.77 173.63 246.8 173.94 249.68H178.95C179.13 247.71 180.91 246.32 183.25 246.32H186.28C188.85 246.32 190.75 248.13 190.75 250.52V282.23Z" fill="#F58534"/>
<path d="M152.79 236.11V233.86H159.45C160.18 233.86 161.7 232.77 161.7 232V234.75C161.7 235.43 160.72 236.24 160 236.54C159.6 236.33 159.13 236.11 158.24 236.11H152.79ZM142.77 236.11H136.7C136.03 236.11 135.42 236.27 134.9 236.45C134.45 236.18 133.86 235.48 133.86 234.76V231.68V232.03C133.86 232.67 134.74 233.86 135.48 233.86H142.77V236.11ZM112.7 265.38H118.27V268.07H112.7V265.38ZM112.7 279.71V282.53C112.7 283.56 111.31 284.1 110.58 284.1C109.24 284.1 108.25 283.28 108.25 282.49V279.63C108.25 280.72 109.62 281.3 110.46 281.3C111.34 281.3 112.7 280.81 112.7 279.71ZM190.75 279.54V282.23C190.75 284.41 189.01 286.01 186.44 286.01H183.39C180.88 286.01 179.62 284.3 179.62 282.37V281.51H174.27C173.97 286.1 172.06 290.5 170.13 290.5H145.47C143.87 290.5 142.54 288.59 141.65 284.89H122.53C119.89 284.89 118.27 282.59 118.27 280.6V277.84C118.27 280.45 120.51 282.2 122.26 282.2H141.65C142.46 285.72 143.84 287.81 145.41 287.81H170.04C172.3 287.81 174.03 282.68 174.27 278.84H179.62V279.62C179.62 281.65 180.89 283.32 183.43 283.32H186.41C188.92 283.32 190.75 281.81 190.75 279.54Z" fill="black" fill-opacity="0.3"/>
<path d="M149.5 290.5V282" stroke="black" stroke-width="2" stroke-miterlimit="10" stroke-dasharray="2 6"/>
<path d="M112.5 10H176.69V35.46C176.06 35.13 175.41 34.83 174.75 34.55V22.43H114.28V61.23H147.58C147.77 61.87 148 62.5 148.25 63.12H112.5V10ZM137.05 36.98V26.52H152.84V36.98H145.87V41.98H152.14C151.6 42.54 151.08 43.12 150.6 43.72H145.87V48.73H148.19C147.25 51.48 146.86 54.39 147.03 57.29H139.14V48.65H144.01V43.72H128.14V48.73H133.1V57.36H121.33V48.73H126.28V41.98H144.01V36.98H137.05ZM149.43 59.79C147.84 51.93 151.24 43.9 158.05 39.45C164.86 35 173.73 35 180.54 39.45C187.35 43.9 190.75 51.93 189.15 59.79C187.27 69.07 178.96 75.75 169.29 75.75C159.63 75.75 151.31 69.07 149.43 59.79ZM161.44 45.85C162.18 43.17 163.41 40.66 165.07 38.42C161.57 39.54 158.38 41.46 155.78 44.03C157.58 44.87 159.48 45.48 161.44 45.85ZM163.29 46.07C167.23 46.83 171.28 46.83 175.22 46.07C174.4 43.56 173.14 41.2 171.5 39.1C170.91 38.47 170.09 38.12 169.22 38.12C168.35 38.12 167.52 38.47 166.93 39.1C165.32 41.2 164.09 43.56 163.29 46.07ZM173.75 38.72C175.26 40.87 176.39 43.25 177.08 45.77C179.11 45.45 181.09 44.86 182.96 44.03C180.46 41.57 177.41 39.7 174.06 38.57L173.75 38.72ZM184.12 45.54C182.02 46.55 179.78 47.24 177.46 47.59C177.96 49.85 178.2 52.17 178.16 54.49H187.61C187.11 51.3 185.92 48.25 184.12 45.54ZM176.3 54.49C176.4 52.27 176.16 50.04 175.6 47.89C171.44 48.74 167.15 48.74 162.98 47.89C162.37 50.04 162.08 52.26 162.13 54.49H176.3ZM161.05 47.59C158.76 47.21 156.54 46.49 154.47 45.47C152.47 48.11 151.22 51.22 150.83 54.49H160.43C160.27 52.17 160.48 49.84 161.05 47.59ZM151.06 56.46C151.3 59.84 152.3 63.13 154 66.08C156.19 64.97 158.54 64.2 160.97 63.81C160.44 61.39 160.18 58.93 160.2 56.46H151.06ZM162.91 63.58C167.15 62.77 171.51 62.75 175.76 63.5C176.25 61.19 176.45 58.82 176.38 56.46H162.13C162 58.86 162.27 61.26 162.91 63.58ZM178.31 56.3C178.4 58.82 178.17 61.34 177.62 63.81C180 64.27 182.31 65.01 184.51 66C186.28 63.04 187.34 59.72 187.61 56.3H178.31ZM183.12 67.44C181.22 66.55 179.22 65.91 177.15 65.55C176.49 68.43 175.25 71.16 173.51 73.58C177.18 72.38 180.48 70.29 183.12 67.52V67.44ZM175.22 65.32C171.28 64.57 167.23 64.57 163.29 65.32C164.03 68.08 165.29 70.68 167.01 72.98C168.19 74.04 170.01 74.04 171.19 72.98C172.99 70.79 174.35 68.3 175.22 65.63V65.32ZM164.84 73.36C163.2 71.01 162.02 68.39 161.36 65.63C159.24 65.98 157.18 66.61 155.24 67.52C157.9 70.21 161.2 72.21 164.84 73.36Z" fill="#00BEF2"/>
</svg>
