<svg id="Layer_1" data-name="Layer 1" xmlns="http://www.w3.org/2000/svg" xmlns:xlink="http://www.w3.org/1999/xlink" viewBox="0 0 1552.66 1142.54"><defs><style>.cls-1,.cls-10,.cls-11,.cls-12,.cls-13,.cls-14,.cls-15,.cls-16,.cls-17,.cls-18,.cls-19,.cls-20,.cls-4,.cls-5,.cls-6,.cls-7,.cls-8,.cls-9{fill:none;}.cls-2{clip-path:url(#clip-path);}.cls-3{fill:#fff;}.cls-10,.cls-11,.cls-12,.cls-13,.cls-14,.cls-15,.cls-16,.cls-17,.cls-18,.cls-19,.cls-20,.cls-4,.cls-5,.cls-6,.cls-7,.cls-8,.cls-9{stroke:#0092bd;stroke-miterlimit:10;}.cls-5{opacity:0.96;}.cls-6{opacity:0.91;}.cls-7{opacity:0.87;}.cls-8{opacity:0.83;}.cls-9{opacity:0.78;}.cls-10{opacity:0.74;}.cls-11{opacity:0.69;}.cls-12{opacity:0.65;}.cls-13{opacity:0.61;}.cls-14{opacity:0.56;}.cls-15{opacity:0.52;}.cls-16{opacity:0.48;}.cls-17{opacity:0.43;}.cls-18{opacity:0.39;}.cls-19{opacity:0.34;}.cls-20{opacity:0.3;}</style><clipPath id="clip-path" transform="translate(120.85 547.26)"><rect class="cls-1" width="841.89" height="595.28"/></clipPath></defs><g class="cls-2"><rect class="cls-3" x="120.85" y="547.26" width="841.89" height="595.28"/><path class="cls-4" d="M96.7,191.83l386.9,386.9a23,23,0,0,0,32.45,0l780.5-780.49" transform="translate(120.85 547.26)"/><path class="cls-4" d="M96.7,191.83" transform="translate(120.85 547.26)"/><path class="cls-5" d="M222.26,287.38,492,557.16a23,23,0,0,0,32.45,0L1305-223.33" transform="translate(120.85 547.26)"/><path class="cls-5" d="M222.26,287.38" transform="translate(120.85 547.26)"/><path class="cls-6" d="M210.26,245.38,500.47,535.59a23,23,0,0,0,32.45,0L1313.41-244.9" transform="translate(120.85 547.26)"/><path class="cls-6" d="M210.26,245.38" transform="translate(120.85 547.26)"/><path class="cls-7" d="M328,333.13,508.9,514a23,23,0,0,0,32.45,0l780.49-780.49" transform="translate(120.85 547.26)"/><path class="cls-7" d="M328,333.13" transform="translate(120.85 547.26)"/><path class="cls-8" d="M136,111.13,517.33,492.44a23,23,0,0,0,32.45,0L1330.27-288" transform="translate(120.85 547.26)"/><path class="cls-8" d="M136,111.13" transform="translate(120.85 547.26)"/><path class="cls-9" d="M261.27,206.38,525.76,470.87a23,23,0,0,0,32.45,0l780.5-780.49" transform="translate(120.85 547.26)"/><path class="cls-9" d="M261.27,206.38" transform="translate(120.85 547.26)"/><path class="cls-10" d="M226.77,141.88,534.19,449.3a23,23,0,0,0,32.45,0l780.5-780.49" transform="translate(120.85 547.26)"/><path class="cls-10" d="M226.77,141.88" transform="translate(120.85 547.26)"/><path class="cls-11" d="M468.27,353.37l74.36,74.36a23,23,0,0,0,32.45,0l780.49-780.49" transform="translate(120.85 547.26)"/><path class="cls-11" d="M468.27,353.37" transform="translate(120.85 547.26)"/><path class="cls-12" d="M-120.5-265.4,551.06,406.16a23,23,0,0,0,32.45,0L1364-374.33" transform="translate(120.85 547.26)"/><path class="cls-13" d="M361.77,186.87,559.49,384.58a23,23,0,0,0,32.45,0l780.49-780.49" transform="translate(120.85 547.26)"/><path class="cls-13" d="M361.77,186.87" transform="translate(120.85 547.26)"/><path class="cls-14" d="M316,111.13,567.92,363a23,23,0,0,0,32.45,0l780.49-780.49" transform="translate(120.85 547.26)"/><path class="cls-14" d="M316,111.13" transform="translate(120.85 547.26)"/><path class="cls-15" d="M508.78,273.87l67.57,67.57a23,23,0,0,0,32.45,0L1389.3-439" transform="translate(120.85 547.26)"/><path class="cls-15" d="M508.78,273.87" transform="translate(120.85 547.26)"/><path class="cls-16" d="M333.28,68.36l251.5,251.51a23,23,0,0,0,32.45,0l780.5-780.49" transform="translate(120.85 547.26)"/><path class="cls-16" d="M333.28,68.36" transform="translate(120.85 547.26)"/><path class="cls-17" d="M-78.34-373.26,593.22,298.3a23,23,0,0,0,32.45,0l780.49-780.49" transform="translate(120.85 547.26)"/><path class="cls-18" d="M547.78,222.86l53.87,53.86a23,23,0,0,0,32.45,0l780.49-780.49" transform="translate(120.85 547.26)"/><path class="cls-18" d="M547.78,222.86" transform="translate(120.85 547.26)"/><path class="cls-19" d="M460.47,105.55l149.61,149.6a23,23,0,0,0,32.45,0L1423-525.34" transform="translate(120.85 547.26)"/><path class="cls-19" d="M460.47,105.55" transform="translate(120.85 547.26)"/><path class="cls-20" d="M-53-438,618.51,233.58a23,23,0,0,0,32.45,0l780.49-780.49" transform="translate(120.85 547.26)"/></g></svg>