<svg xmlns="http://www.w3.org/2000/svg" xmlns:xlink="http://www.w3.org/1999/xlink" id="Layer_1" data-name="Layer 1" viewBox="0 0 1173.12 1195.16"><defs><clipPath id="clip-path"><rect width="1173.12" height="1195.16" fill="none"/></clipPath></defs><g clip-path="url(#clip-path)"><rect x="331.23" y="381.01" width="841.89" height="425.2" fill="none"/><path d="M463.5,333.58,234,466.09a47.26,47.26,0,0,1-64.37-17.25L16.84,184.22a47.27,47.27,0,0,1,17.25-64.38L298.71-32.94a47.26,47.26,0,0,1,64.37,17.25l55.21,95.63" transform="translate(331.23 381.01)" fill="none" stroke="#ff6502" stroke-miterlimit="10" stroke-width="0.78"/><path d="M486.55,176.42l44.16,76.49a47.28,47.28,0,0,1-17.25,64.38L325.64,425.72" transform="translate(331.23 381.01)" fill="none" stroke="#ff6502" stroke-miterlimit="10" stroke-width="0.78" opacity="0.97"/><path d="M161.66,478.53-12.85,176.26A47.26,47.26,0,0,1,4.4,111.89L306.66-62.62A47.27,47.27,0,0,1,371-45.37L545.55,256.89a47.26,47.26,0,0,1-17.25,64.37L226,495.77A47.27,47.27,0,0,1,161.66,478.53Z" transform="translate(331.23 381.01)" fill="none" stroke="#ff6502" stroke-miterlimit="10" stroke-width="0.78" opacity="0.93"/><path d="M528.29,333.82,222.06,510.62a47.25,47.25,0,0,1-64.37-17.25L-27.69,172.29a47.27,47.27,0,0,1,17.25-64.38L310.64-77.47A47.28,47.28,0,0,1,375-60.22L535.77,218.22" transform="translate(331.23 381.01)" fill="none" stroke="#ff6502" stroke-miterlimit="10" stroke-width="0.78" opacity="0.9"/><path d="M480.13,100.11l95.11,164.73A47.28,47.28,0,0,1,558,329.22L447.59,393" transform="translate(331.23 381.01)" fill="none" stroke="#ff6502" stroke-miterlimit="10" stroke-width="0.78" opacity="0.87"/><path d="M83.34,28.67,318.59-107.15A47.27,47.27,0,0,1,383-89.9L590.08,268.82a47,47,0,0,1,3.32,39.93" transform="translate(331.23 381.01)" fill="none" stroke="#ff6502" stroke-miterlimit="10" stroke-width="0.78" opacity="0.84"/><path d="M516.36,378.35,210.13,555.15a47.27,47.27,0,0,1-64.38-17.25l-218-377.55A47.26,47.26,0,0,1-55,96L322.57-122A47.27,47.27,0,0,1,387-104.75l132.5,229.51" transform="translate(331.23 381.01)" fill="none" stroke="#ff6502" stroke-miterlimit="10" stroke-width="0.78" opacity="0.8"/><path d="M583.31,213.64l36.46,63.13a47.27,47.27,0,0,1-17.25,64.38L455,426.32" transform="translate(331.23 381.01)" fill="none" stroke="#ff6502" stroke-miterlimit="10" stroke-width="0.78" opacity="0.77"/><path d="M538.57,114.41l96,166.34a46.79,46.79,0,0,1,6.16,26.82" transform="translate(331.23 381.01)" fill="none" stroke="#ff6502" stroke-miterlimit="10" stroke-width="0.78" opacity="0.74"/><line x1="919.64" y1="742.85" x2="782.25" y2="822.17" fill="none" stroke="#ff6502" stroke-miterlimit="10" stroke-width="0.78" opacity="0.74"/><path d="M583.11,169.82l66.34,114.91a47.26,47.26,0,0,1-17.24,64.37L444.39,457.54" transform="translate(331.23 381.01)" fill="none" stroke="#ff6502" stroke-miterlimit="10" stroke-width="0.78" opacity="0.71"/><path d="M638.77,244.49l25.53,44.22a47.26,47.26,0,0,1-17.25,64.37L511.76,431.19" transform="translate(331.23 381.01)" fill="none" stroke="#ff6502" stroke-miterlimit="10" stroke-width="0.78" opacity="0.67"/><path d="M599.2,393.26l-409,236.11a47.27,47.27,0,0,1-64.37-17.25L-146.44,140.47a47.27,47.27,0,0,1,17.25-64.38L342.46-196.22A47.26,47.26,0,0,1,406.83-179l250.9,434.56" transform="translate(331.23 381.01)" fill="none" stroke="#ff6502" stroke-miterlimit="10" stroke-width="0.78" opacity="0.64"/><path d="M637.11,383.92,186.27,644.21A47.27,47.27,0,0,1,121.89,627L-161.28,136.49A47.27,47.27,0,0,1-144,72.11L346.44-211.06a47.26,47.26,0,0,1,64.37,17.25L590.42,117.27" transform="translate(331.23 381.01)" fill="none" stroke="#ff6502" stroke-miterlimit="10" stroke-width="0.78" opacity="0.61"/><path d="M548.83,447.43,182.29,659.05a47.27,47.27,0,0,1-64.38-17.25l-294-509.29a47.27,47.27,0,0,1,17.25-64.37l509.29-294a47.27,47.27,0,0,1,64.38,17.25L675.08,242.19" transform="translate(331.23 381.01)" fill="none" stroke="#ff6502" stroke-miterlimit="10" stroke-width="0.78" opacity="0.58"/><path d="M655.3,398.51l-477,275.39a47.28,47.28,0,0,1-64.38-17.25L-191,128.54a47.27,47.27,0,0,1,17.25-64.38L354.39-240.75a47.28,47.28,0,0,1,64.38,17.25l291.58,505" transform="translate(331.23 381.01)" fill="none" stroke="#ff6502" stroke-miterlimit="10" stroke-width="0.78" opacity="0.54"/><path d="M730,293.87l8.5,14.72A47.28,47.28,0,0,1,721.27,373L567.93,461.49" transform="translate(331.23 381.01)" fill="none" stroke="#ff6502" stroke-miterlimit="10" stroke-width="0.78" opacity="0.51"/><path d="M686.38,405.66l-516,297.92A47.27,47.27,0,0,1,106,686.33L-220.66,120.58a47.25,47.25,0,0,1,17.25-64.37L362.35-270.43a47.26,47.26,0,0,1,64.37,17.25L689.58,202.09" transform="translate(331.23 381.01)" fill="none" stroke="#ff6502" stroke-miterlimit="10" stroke-width="0.78" opacity="0.48"/><path d="M735.05,259.12l33.15,57.43A47.26,47.26,0,0,1,751,380.92L625.67,453.25" transform="translate(331.23 381.01)" fill="none" stroke="#ff6502" stroke-miterlimit="10" stroke-width="0.78" opacity="0.45"/><path d="M760.17,280.9l22.88,39.62A47.28,47.28,0,0,1,765.8,384.9L613.24,473" transform="translate(331.23 381.01)" fill="none" stroke="#ff6502" stroke-miterlimit="10" stroke-width="0.78" opacity="0.41"/><path d="M722.19,422.62,158.42,748.11a47.26,47.26,0,0,1-64.37-17.24L-265.19,108.65a47.27,47.27,0,0,1,17.25-64.38L374.28-315a47.26,47.26,0,0,1,64.37,17.25l297.93,516" transform="translate(331.23 381.01)" fill="none" stroke="#ff6502" stroke-miterlimit="10" stroke-width="0.78" opacity="0.38"/><path d="M90.07,745.71l-370.1-641A47.25,47.25,0,0,1-262.78,40.3l641-370.11a47.28,47.28,0,0,1,64.38,17.25l370.1,641a47.27,47.27,0,0,1-17.25,64.38L154.45,763A47.27,47.27,0,0,1,90.07,745.71Z" transform="translate(331.23 381.01)" fill="none" stroke="#ff6502" stroke-miterlimit="10" stroke-width="0.78" opacity="0.35"/><path d="M783.42,256l44.16,76.49a47.27,47.27,0,0,1-17.25,64.37L664.65,480.94" transform="translate(331.23 381.01)" fill="none" stroke="#ff6502" stroke-miterlimit="10" stroke-width="0.78" opacity="0.32"/><path d="M758.78,439.14,146.49,792.65A47.27,47.27,0,0,1,82.12,775.4L-309.72,96.72a47.27,47.27,0,0,1,17.25-64.38L386.21-359.49a47.27,47.27,0,0,1,64.38,17.25L769,209.3" transform="translate(331.23 381.01)" fill="none" stroke="#ff6502" stroke-miterlimit="10" stroke-width="0.78" opacity="0.28"/><path d="M664.4,506.18,142.52,807.49a47.27,47.27,0,0,1-64.38-17.25l-402.7-697.5a47.27,47.27,0,0,1,17.25-64.38l697.5-402.7a47.27,47.27,0,0,1,64.37,17.25L805.3,250.41" transform="translate(331.23 381.01)" fill="none" stroke="#ff6502" stroke-miterlimit="10" stroke-width="0.78" opacity="0.25"/></g><!-- Code injected by live-server --><!-- Code injected by live-server -->

</svg>