<svg width="283" height="1435" viewBox="0 0 283 1435" fill="none" xmlns="http://www.w3.org/2000/svg">
<path d="M-797 984.961H15.636V1.78503H-797V984.961Z" fill="white"/>
<path opacity="0.93" d="M-162.677 409.762L-5.10713 778.02C0.501412 791.217 2.01138 806.872 -0.906977 821.566C-3.82533 836.26 -10.9349 848.799 -20.6827 856.443L-293.602 1069.05C-303.381 1076.6 -314.976 1078.63 -325.859 1074.7C-336.742 1070.76 -346.03 1061.17 -351.696 1048.03L-509.303 679.788C-514.911 666.591 -516.421 650.936 -513.503 636.242C-510.585 621.548 -503.475 609.009 -493.727 601.365L-220.772 388.758C-210.994 381.205 -199.399 379.174 -188.517 383.108C-177.634 387.043 -168.346 396.624 -162.677 409.762Z" stroke="#006AC9" stroke-width="0.78" stroke-miterlimit="10"/>
<path opacity="0.9" d="M-493.718 586.063L-217.214 370.666C-207.434 363.095 -195.831 361.056 -184.94 364.994C-174.05 368.932 -164.757 378.527 -159.093 391.682L8.29213 782.857C13.9011 796.056 15.4114 811.712 12.493 826.409C9.57472 841.104 2.46495 853.645 -7.28343 861.292L-297.195 1087.14C-306.977 1094.7 -318.575 1096.73 -329.462 1092.79C-340.348 1088.86 -349.639 1079.27 -355.308 1066.13L-500.472 726.9" stroke="#006AC9" stroke-width="0.78" stroke-miterlimit="10"/>
<path opacity="0.8" d="M-482.946 531.812L-206.442 316.415C-196.661 308.847 -185.056 306.808 -174.165 310.746C-163.273 314.685 -153.979 324.278 -148.312 337.431L48.5267 797.403C54.1296 810.598 55.6364 826.247 52.7183 840.936C49.8001 855.624 42.6941 868.158 32.9512 875.802L-307.967 1141.39C-317.753 1148.98 -329.369 1151.03 -340.272 1147.09C-351.173 1143.15 -360.476 1133.55 -366.143 1120.38L-485.781 840.763" stroke="#006AC9" stroke-width="0.78" stroke-miterlimit="10"/>
<path opacity="0.64" d="M-557.745 513.647L-188.447 225.992C-178.666 218.427 -167.065 216.391 -156.174 220.329C-145.285 224.267 -135.993 233.857 -130.325 247.008L115.515 821.623C121.124 834.823 122.634 850.479 119.716 865.175C116.797 879.871 109.688 892.412 99.9394 900.058L-325.927 1231.82C-335.705 1239.39 -347.305 1241.43 -358.194 1237.5C-369.084 1233.57 -378.379 1223.98 -384.048 1210.84L-610.593 681.408" stroke="#006AC9" stroke-width="0.78" stroke-miterlimit="10"/>
<path opacity="0.61" d="M-591.975 525.026L-184.898 207.912C-175.121 200.34 -163.52 198.295 -152.629 202.223C-141.738 206.152 -132.441 215.734 -126.768 228.879L128.915 826.472C134.521 839.675 136.027 855.335 133.103 870.032C130.181 884.729 123.065 897.267 113.312 904.907L-329.52 1249.9C-339.301 1257.46 -350.904 1259.5 -361.794 1255.56C-372.684 1251.63 -381.977 1242.03 -387.642 1228.88L-549.817 849.888" stroke="#006AC9" stroke-width="0.78" stroke-miterlimit="10"/>
<path opacity="0.58" d="M-512.264 447.651L-181.305 189.833C-171.523 182.264 -159.919 180.227 -149.027 184.165C-138.136 188.103 -128.841 197.696 -123.174 210.848L142.287 831.321C147.893 844.519 149.402 860.173 146.484 874.866C143.566 889.559 136.458 902.098 126.711 909.744L-333.141 1267.93C-342.923 1275.5 -354.527 1277.53 -365.419 1273.6C-376.31 1269.66 -385.605 1260.07 -391.272 1246.91L-626.259 697.697" stroke="#006AC9" stroke-width="0.78" stroke-miterlimit="10"/>
<path opacity="0.54" d="M-608.399 507.251L-177.702 171.74C-167.92 164.176 -156.317 162.14 -145.426 166.077C-134.535 170.014 -125.24 179.606 -119.571 192.756L155.75 836.158C161.359 849.357 162.868 865.013 159.95 879.709C157.032 894.405 149.922 906.946 140.174 914.593L-336.699 1286.07C-346.481 1293.63 -358.085 1295.67 -368.976 1291.73C-379.867 1287.79 -389.161 1278.2 -394.829 1265.05L-658.105 649.805" stroke="#006AC9" stroke-width="0.78" stroke-miterlimit="10"/>
<path opacity="0.48" d="M-636.462 498.54L-170.551 135.581C-160.769 128.013 -149.165 125.976 -138.274 129.914C-127.382 133.851 -118.087 143.444 -112.42 156.597L182.531 845.856C188.141 859.052 189.653 874.708 186.735 889.403C183.815 904.098 176.705 916.637 166.955 924.279L-343.886 1322.23C-353.666 1329.8 -365.269 1331.83 -376.159 1327.89C-387.05 1323.96 -396.343 1314.36 -402.007 1301.21L-639.351 746.551" stroke="#006AC9" stroke-width="0.78" stroke-miterlimit="10"/>
<path opacity="0.38" d="M-668.796 477.878L-159.752 81.3299C-149.973 73.7618 -138.371 71.7223 -127.481 75.6574C-116.591 79.5926 -107.297 89.1831 -101.63 102.334L222.738 860.39C228.347 873.589 229.857 889.246 226.938 903.942C224.02 918.638 216.911 931.179 207.162 938.825L-354.658 1376.53C-364.438 1384.1 -376.041 1386.13 -386.931 1382.19C-397.822 1378.26 -407.114 1368.66 -412.779 1355.51L-681.789 726.864" stroke="#006AC9" stroke-width="0.78" stroke-miterlimit="10"/>
<path opacity="0.35" d="M-98.0365 84.2538L236.137 865.19C241.76 878.391 243.278 894.059 240.359 908.766C237.44 923.472 230.321 936.02 220.562 943.662L-358.215 1394.57C-367.998 1402.13 -379.601 1404.17 -390.492 1400.23C-401.384 1396.3 -410.677 1386.7 -416.346 1373.55L-750.52 592.618C-756.129 579.42 -757.64 563.762 -754.721 549.067C-751.803 534.37 -744.693 521.829 -734.944 514.183L-156.167 63.1891C-146.381 55.6246 -134.774 53.5949 -123.882 57.5423C-112.989 61.4884 -103.698 71.0924 -98.0365 84.2538Z" stroke="#006AC9" stroke-width="0.78" stroke-miterlimit="10"/>
<path opacity="0.28" d="M-701.834 457.751L-148.98 27.0663C-139.199 19.5018 -127.597 17.466 -116.707 21.4036C-105.818 25.3412 -96.5251 34.9317 -90.8583 48.0821L262.945 874.925C268.554 888.123 270.065 903.78 267.146 918.476C264.228 933.172 257.118 945.713 247.37 953.359L-365.43 1430.73C-375.212 1438.3 -386.816 1440.34 -397.708 1436.4C-408.599 1432.46 -417.894 1422.87 -423.56 1409.71L-711.062 737.767" stroke="#006AC9" stroke-width="0.78" stroke-miterlimit="10"/>
<path opacity="0.25" d="M-616.616 376.076L-145.395 8.98656C-135.614 1.41842 -124.009 -0.619788 -113.118 3.31901C-102.226 7.25658 -92.9314 16.8495 -87.2646 30.0024L276.345 879.774C281.954 892.972 283.464 908.629 280.545 923.325C277.627 938.021 270.517 950.562 260.769 958.208L-369.024 1448.82C-378.805 1456.39 -390.407 1458.42 -401.296 1454.48C-412.185 1450.55 -421.478 1440.96 -427.145 1427.81L-743.838 687.683" stroke="#006AC9" stroke-width="0.78" stroke-miterlimit="10"/>
</svg>
