<svg width="288" height="1457" viewBox="0 0 288 1457" fill="none" xmlns="http://www.w3.org/2000/svg">
<path d="M0 984.739H812.636V1.56293H0V984.739Z" fill="white"/>
<path opacity="0.93" d="M634.323 409.54L791.893 777.798C797.501 790.995 799.011 806.65 796.093 821.344C793.175 836.038 786.065 848.577 776.317 856.221L503.398 1068.83C493.619 1076.38 482.024 1078.41 471.141 1074.47C460.258 1070.54 450.97 1060.95 445.304 1047.81L287.697 679.566C282.089 666.369 280.579 650.714 283.497 636.02C286.415 621.326 293.525 608.787 303.273 601.143L576.228 388.536C586.006 380.982 597.601 378.951 608.483 382.885C619.366 386.82 628.654 396.401 634.323 409.54Z" stroke="#006AC9" stroke-width="0.78" stroke-miterlimit="10"/>
<path opacity="0.87" d="M346.767 870.572L260.889 669.88C255.282 656.682 253.772 641.027 256.688 626.333C259.605 611.638 266.711 599.096 276.456 591.445L376.148 513.742" stroke="#006AC9" stroke-width="0.78" stroke-miterlimit="10"/>
<path opacity="0.84" d="M705.04 957.609L492.626 1123.08C482.842 1130.66 471.231 1132.7 460.333 1128.77C449.435 1124.83 440.135 1115.23 434.469 1102.06L247.49 665.031C244.364 657.721 242.475 649.57 241.957 641.161C241.439 632.751 242.304 624.29 244.492 616.384" stroke="#006AC9" stroke-width="0.78" stroke-miterlimit="10"/>
<path opacity="0.77" d="M253.603 732.258L220.682 655.346C215.073 642.148 213.562 626.49 216.481 611.794C219.399 597.098 226.509 584.557 236.258 576.911L369.458 473.148" stroke="#006AC9" stroke-width="0.78" stroke-miterlimit="10"/>
<path opacity="0.74" d="M294 853.151L207.319 650.497C203.079 640.604 201.142 629.219 201.757 617.822" stroke="#006AC9" stroke-width="0.78" stroke-miterlimit="10"/>
<path opacity="0.74" d="M248.998 551.704L373.051 455.068" stroke="#006AC9" stroke-width="0.78" stroke-miterlimit="10"/>
<path opacity="0.71" d="M253.783 785.644L193.883 645.648C188.273 632.453 186.762 616.798 189.679 602.104C192.596 587.412 199.703 574.872 209.45 567.225L379.038 435.112" stroke="#006AC9" stroke-width="0.78" stroke-miterlimit="10"/>
<path opacity="0.67" d="M203.526 694.673L180.475 640.799C174.867 627.602 173.356 611.947 176.274 597.253C179.192 582.559 186.302 570.02 196.05 562.377L318.207 467.214" stroke="#006AC9" stroke-width="0.78" stroke-miterlimit="10"/>
<path opacity="0.64" d="M239.255 513.425L608.553 225.77C618.334 218.205 629.936 216.169 640.826 220.107C651.715 224.045 661.007 233.635 666.675 246.786L912.515 821.401C918.124 834.601 919.634 850.257 916.716 864.953C913.797 879.649 906.688 892.19 896.939 899.836L471.073 1231.59C461.295 1239.16 449.696 1241.21 438.806 1237.28C427.916 1233.35 418.621 1223.76 412.952 1210.61L186.407 681.186" stroke="#006AC9" stroke-width="0.78" stroke-miterlimit="10"/>
<path opacity="0.61" d="M205.025 524.804L612.102 207.69C621.879 200.118 633.48 198.073 644.371 202C655.262 205.929 664.559 215.511 670.232 228.657L925.915 826.25C931.521 839.453 933.027 855.113 930.103 869.81C927.181 884.507 920.065 897.045 910.312 904.685L467.48 1249.67C457.699 1257.24 446.096 1259.28 435.206 1255.34C424.316 1251.4 415.023 1241.81 409.358 1228.66L247.183 849.666" stroke="#006AC9" stroke-width="0.78" stroke-miterlimit="10"/>
<path opacity="0.58" d="M284.736 447.429L615.695 189.61C625.477 182.042 637.081 180.005 647.973 183.943C658.864 187.88 668.159 197.473 673.826 210.626L939.287 831.099C944.893 844.297 946.402 859.951 943.484 874.644C940.566 889.337 933.458 901.876 923.712 909.522L463.859 1267.7C454.077 1275.27 442.473 1277.31 431.581 1273.37C420.69 1269.44 411.395 1259.84 405.728 1246.69L170.741 697.475" stroke="#006AC9" stroke-width="0.78" stroke-miterlimit="10"/>
<path opacity="0.54" d="M188.601 507.029L619.298 171.518C629.08 163.954 640.683 161.918 651.574 165.855C662.465 169.792 671.76 179.384 677.429 192.534L952.75 835.936C958.359 849.135 959.868 864.792 956.95 879.487C954.032 894.183 946.922 906.724 937.174 914.371L460.301 1285.85C450.519 1293.41 438.915 1295.45 428.024 1291.51C417.133 1287.57 407.839 1277.98 402.171 1264.83L138.895 649.583" stroke="#006AC9" stroke-width="0.78" stroke-miterlimit="10"/>
<path opacity="0.51" d="M121.152 634.513L113.477 616.579C107.861 603.38 106.344 587.717 109.26 573.013C112.174 558.31 119.284 545.761 129.035 538.108L267.49 430.299" stroke="#006AC9" stroke-width="0.78" stroke-miterlimit="10"/>
<path opacity="0.48" d="M160.538 498.318L626.449 135.359C636.231 127.791 647.835 125.754 658.726 129.691C669.618 133.629 678.913 143.222 684.58 156.375L979.531 845.633C985.141 858.83 986.653 874.486 983.735 889.181C980.815 903.876 973.705 916.414 963.955 924.056L453.114 1322C443.333 1329.57 431.731 1331.61 420.841 1327.67C409.95 1323.73 400.657 1314.14 394.992 1300.99L157.649 746.329" stroke="#006AC9" stroke-width="0.78" stroke-miterlimit="10"/>
<path opacity="0.45" d="M116.592 676.849L86.6603 606.881C81.0477 593.692 79.5309 578.043 82.441 563.349C85.3502 548.656 92.4508 536.113 102.191 528.459L215.355 440.338" stroke="#006AC9" stroke-width="0.78" stroke-miterlimit="10"/>
<path opacity="0.41" d="M93.9108 650.314L73.2518 602.045C67.6446 588.846 66.1359 573.189 69.0541 558.495C71.9724 543.8 79.0802 531.258 88.8274 523.61L226.578 416.277" stroke="#006AC9" stroke-width="0.78" stroke-miterlimit="10"/>
<path opacity="0.38" d="M128.204 477.655L637.248 81.1077C647.027 73.5396 658.629 71.5001 669.519 75.4353C680.409 79.3704 689.703 88.9609 695.37 102.111L1019.74 860.168C1025.35 873.367 1026.86 889.024 1023.94 903.72C1021.02 918.416 1013.91 930.956 1004.16 938.603L442.342 1376.31C432.562 1383.87 420.959 1385.91 410.069 1381.97C399.178 1378.04 389.886 1368.44 384.221 1355.29L115.211 726.641" stroke="#006AC9" stroke-width="0.78" stroke-miterlimit="10"/>
<path opacity="0.35" d="M698.963 84.0315L1033.14 864.968C1038.76 878.169 1040.28 893.837 1037.36 908.543C1034.44 923.25 1027.32 935.797 1017.56 943.44L438.785 1394.35C429.002 1401.91 417.399 1403.95 406.507 1400.01C395.616 1396.07 386.323 1386.48 380.654 1373.33L46.48 592.396C40.871 579.198 39.3604 563.54 42.2787 548.845C45.197 534.148 52.3066 521.607 62.0555 513.961L640.833 62.9668C650.619 55.4023 662.226 53.3726 673.118 57.32C684.011 61.2661 693.302 70.8701 698.963 84.0315Z" stroke="#006AC9" stroke-width="0.78" stroke-miterlimit="10"/>
<path opacity="0.32" d="M72.9178 680.65L33.0444 587.462C27.4381 574.265 25.9293 558.61 28.8476 543.917C31.7659 529.224 38.8737 516.685 48.62 509.039L180.159 406.604" stroke="#006AC9" stroke-width="0.78" stroke-miterlimit="10"/>
<path opacity="0.28" d="M95.1659 457.529L648.02 26.8441C657.801 19.2796 669.403 17.2439 680.293 21.1815C691.182 25.1191 700.475 34.7095 706.142 47.86L1059.95 874.703C1065.55 887.901 1067.06 903.558 1064.15 918.254C1061.23 932.95 1054.12 945.491 1044.37 953.138L431.57 1430.51C421.788 1438.08 410.184 1440.11 399.292 1436.18C388.401 1432.24 379.106 1422.64 373.44 1409.49L85.938 737.545" stroke="#006AC9" stroke-width="0.78" stroke-miterlimit="10"/>
<path opacity="0.25" d="M180.384 375.853L651.605 8.76439C661.386 1.19625 672.991 -0.841956 683.882 3.09684C694.774 7.03442 704.069 16.6274 709.735 29.7802L1073.34 879.551C1078.95 892.75 1080.46 908.407 1077.55 923.103C1074.63 937.799 1067.52 950.34 1057.77 957.986L427.976 1448.6C418.195 1456.16 406.593 1458.2 395.704 1454.26C384.815 1450.32 375.522 1440.73 369.855 1427.58L53.1617 687.46" stroke="#006AC9" stroke-width="0.78" stroke-miterlimit="10"/>
</svg>
