<svg width="35" height="20" viewBox="0 0 35 20" fill="none" xmlns="http://www.w3.org/2000/svg">
<g clip-path="url(#clip0_2_86)">
<path d="M9.76519 7.29667C9.76519 7.70327 9.8104 8.03294 9.88951 8.2747C9.97993 8.51645 10.093 8.78019 10.2512 9.0659C10.3077 9.15382 10.3303 9.24173 10.3303 9.31865C10.3303 9.42854 10.2625 9.53843 10.1156 9.64832L9.40351 10.1099C9.30179 10.1758 9.20007 10.2088 9.10965 10.2088C8.99663 10.2088 8.88361 10.1538 8.77059 10.0549C8.61235 9.89008 8.47673 9.71426 8.3637 9.53843C8.25068 9.35162 8.13766 9.14283 8.01333 8.89008C7.13175 9.90107 6.02413 10.4066 4.69046 10.4066C3.74106 10.4066 2.98381 10.1428 2.43 9.61535C1.87619 9.08788 1.59363 8.38459 1.59363 7.50547C1.59363 6.5714 1.9327 5.81316 2.62214 5.24173C3.31158 4.6703 4.22706 4.38459 5.3912 4.38459C5.77548 4.38459 6.17106 4.41755 6.58924 4.4725C7.00743 4.52744 7.43691 4.61536 7.88901 4.71426V3.91206C7.88901 3.07689 7.70817 2.49448 7.3578 2.15382C6.99612 1.81316 6.3858 1.64832 5.51552 1.64832C5.11994 1.64832 4.71306 1.69228 4.29488 1.79118C3.87669 1.89008 3.46981 2.01096 3.07423 2.16481C2.89339 2.24173 2.75776 2.28568 2.67865 2.30766C2.59953 2.32964 2.54302 2.34063 2.49781 2.34063C2.33958 2.34063 2.26046 2.23074 2.26046 1.99997V1.46151C2.26046 1.28568 2.28307 1.15382 2.33958 1.07689C2.39609 0.99997 2.49781 0.923047 2.65604 0.846124C3.05162 0.648322 3.52632 0.483487 4.08013 0.351619C4.63394 0.208762 5.22166 0.142828 5.84329 0.142828C7.18826 0.142828 8.17156 0.439531 8.80449 1.03294C9.42612 1.62634 9.74258 2.52744 9.74258 3.73623V7.29667H9.76519ZM5.17646 8.967C5.54943 8.967 5.93371 8.90107 6.34059 8.7692C6.74747 8.63733 7.10915 8.39557 7.41431 8.0659C7.59515 7.85711 7.73077 7.62634 7.79859 7.36261C7.8664 7.09887 7.91161 6.78019 7.91161 6.40656V5.94502C7.58384 5.8681 7.23347 5.80217 6.8718 5.75821C6.51013 5.71426 6.15976 5.69228 5.80938 5.69228C5.05213 5.69228 4.49832 5.83513 4.12534 6.13184C3.75237 6.42854 3.57153 6.84612 3.57153 7.39558C3.57153 7.91206 3.70716 8.29667 3.98971 8.56041C4.26097 8.83514 4.65655 8.967 5.17646 8.967ZM14.2522 10.1538C14.0488 10.1538 13.9131 10.1208 13.8227 10.0439C13.7323 9.97799 13.6532 9.82415 13.5854 9.61535L10.9293 1.12085C10.8615 0.901069 10.8276 0.758212 10.8276 0.681289C10.8276 0.505465 10.918 0.406564 11.0989 0.406564H12.2065C12.4212 0.406564 12.5682 0.439531 12.6473 0.516454C12.7377 0.582388 12.8055 0.736234 12.8733 0.945025L14.7721 8.21975L16.5353 0.945025C16.5918 0.725245 16.6596 0.582388 16.75 0.516454C16.8404 0.45052 16.9987 0.406564 17.2021 0.406564H18.1063C18.321 0.406564 18.468 0.439531 18.5584 0.516454C18.6488 0.582388 18.7279 0.736234 18.7731 0.945025L20.5589 8.30766L22.5142 0.945025C22.582 0.725245 22.6611 0.582388 22.7402 0.516454C22.8306 0.45052 22.9776 0.406564 23.181 0.406564H24.2321C24.413 0.406564 24.5147 0.494476 24.5147 0.681289C24.5147 0.736234 24.5034 0.791179 24.4921 0.857113C24.4808 0.923047 24.4582 1.01096 24.413 1.13184L21.6891 9.62634C21.6213 9.84612 21.5422 9.98898 21.4518 10.0549C21.3613 10.1208 21.2144 10.1648 21.0223 10.1648H20.0503C19.8355 10.1648 19.6886 10.1318 19.5982 10.0549C19.5078 9.97799 19.4286 9.83513 19.3834 9.61535L17.6316 2.52744L15.891 9.60437C15.8345 9.82415 15.7667 9.967 15.6763 10.0439C15.5859 10.1208 15.4276 10.1538 15.2242 10.1538H14.2522ZM28.7756 10.4505C28.1879 10.4505 27.6002 10.3846 27.0351 10.2527C26.47 10.1208 26.0292 9.97799 25.7353 9.81316C25.5545 9.71426 25.4302 9.60437 25.385 9.50546C25.3397 9.40656 25.3171 9.29667 25.3171 9.19777V8.63733C25.3171 8.40656 25.4076 8.29667 25.5771 8.29667C25.6449 8.29667 25.7127 8.30766 25.7805 8.32964C25.8484 8.35162 25.9501 8.39557 26.0631 8.43953C26.4474 8.60437 26.8656 8.73623 27.3063 8.82415C27.7584 8.91206 28.1992 8.95601 28.6513 8.95601C29.3634 8.95601 29.9172 8.83513 30.3015 8.59338C30.6857 8.35162 30.8892 7.99997 30.8892 7.54942C30.8892 7.24173 30.7875 6.98898 30.584 6.78019C30.3806 6.5714 29.9963 6.38459 29.4425 6.20876L27.8036 5.71426C26.9786 5.46151 26.3683 5.08788 25.9953 4.59338C25.6223 4.10986 25.4302 3.5714 25.4302 2.99997C25.4302 2.53843 25.5319 2.13184 25.7353 1.78019C25.9388 1.42854 26.21 1.12085 26.5491 0.879091C26.8882 0.626344 27.2724 0.439531 27.7245 0.307663C28.1766 0.175795 28.6513 0.12085 29.1486 0.12085C29.3973 0.12085 29.6572 0.131839 29.9059 0.164806C30.1658 0.197773 30.4032 0.241729 30.6405 0.285685C30.8666 0.34063 31.0813 0.395575 31.2848 0.461509C31.4882 0.527443 31.6464 0.593377 31.7595 0.659311C31.9177 0.747223 32.0307 0.835135 32.0985 0.934036C32.1663 1.02195 32.2002 1.14283 32.2002 1.29667V1.81316C32.2002 2.04393 32.1098 2.16481 31.9403 2.16481C31.8499 2.16481 31.7029 2.12085 31.5108 2.03294C30.8666 1.74722 30.1432 1.60437 29.3408 1.60437C28.6965 1.60437 28.1879 1.70327 27.8376 1.91206C27.4872 2.12085 27.3063 2.43953 27.3063 2.89008C27.3063 3.19777 27.4194 3.46151 27.6454 3.6703C27.8715 3.87909 28.2896 4.08788 28.8887 4.2747L30.4936 4.7692C31.3074 5.02195 31.8951 5.3736 32.2454 5.82415C32.5958 6.2747 32.7654 6.79118 32.7654 7.36261C32.7654 7.83513 32.6636 8.26371 32.4715 8.63733C32.2681 9.01096 31.9968 9.34063 31.6464 9.60437C31.2961 9.87909 30.8779 10.0769 30.3919 10.2198C29.8833 10.3736 29.3521 10.4505 28.7756 10.4505Z" fill="white"/>
<path fill-rule="evenodd" clip-rule="evenodd" d="M30.9118 15.7912C27.1933 18.4616 21.7908 19.8791 17.1456 19.8791C10.6355 19.8791 4.76957 17.5385 0.339071 13.6484C-0.0113003 13.3407 0.305164 12.9231 0.723349 13.1649C5.51552 15.8682 11.4266 17.5055 17.5412 17.5055C21.6665 17.5055 26.1987 16.6703 30.3693 14.9561C30.9909 14.6813 31.5221 15.3517 30.9118 15.7912Z" fill="#FF9900"/>
<path fill-rule="evenodd" clip-rule="evenodd" d="M32.4602 14.0769C31.9855 13.4835 29.3182 13.7912 28.1088 13.9341C27.7471 13.978 27.6906 13.6703 28.0184 13.4396C30.1432 11.989 33.6356 12.4066 34.0425 12.8901C34.4494 13.3846 33.9295 16.7802 31.9403 18.4066C31.6351 18.6594 31.3413 18.5275 31.4769 18.1978C31.929 17.1099 32.9349 14.6594 32.4602 14.0769Z" fill="#FF9900"/>
</g>
<defs>
<clipPath id="clip0_2_86">
<rect width="34.359" height="20" fill="white"/>
</clipPath>
</defs>
</svg>
