<svg width="286" height="200" viewBox="0 0 286 200" fill="none" xmlns="http://www.w3.org/2000/svg">
    <g clip-path="url(#clip0_2_356)">
        <path
            d="M28.5113 114.045V171.068H0V114.045H28.5113ZM57.0227 57.0227V114.045H28.5113V57.0227H57.0227ZM256.602 171.068V199.579H28.5113V171.068H256.602ZM85.534 28.5113V57.0227H57.0227V28.5113H85.534ZM85.534 114.045V142.557H57.0227V114.045H85.534ZM142.557 0V28.5113H85.534V0H142.557ZM171.068 28.5113V57.0227H142.557V28.5113H171.068ZM171.068 85.534V114.045H142.557V85.534H171.068ZM228.091 57.0227V85.534H171.068V57.0227H228.091ZM256.602 85.534V114.045H228.091V85.534H256.602ZM285.113 114.045V171.068H256.602V114.045H285.113Z"
            fill="#5C5C5C" />
    </g>
    <defs>
        <clipPath id="clip0_2_356">
            <rect width="285.113" height="200" fill="white" />
        </clipPath>
    </defs>
</svg>