<?xml version="1.0" encoding="utf-8"?>
<!-- Generator: Adobe Illustrator 27.3.1, SVG Export Plug-In . SVG Version: 6.00 Build 0)  -->
<svg version="1.1" id="Lager_1" xmlns="http://www.w3.org/2000/svg" xmlns:xlink="http://www.w3.org/1999/xlink" x="0px" y="0px"
	 viewBox="0 0 55.21 55.21" style="enable-background:new 0 0 55.21 55.21;" xml:space="preserve">
<style type="text/css">
	.st0{fill:#FFFFFF;}
	.st1{fill:#1D1E1C;}
	.st2{fill:#161616;}
	.st3{fill:none;stroke:#FFFFFF;stroke-width:0.15;stroke-miterlimit:10;}
	.st4{fill:#F4F4F4;}
	.st5{fill:none;stroke:#FFFFFF;stroke-width:0.25;stroke-miterlimit:10;}
	.st6{fill:#6300FF;}
	.st7{fill:#C3EEC3;}
	.st8{fill:#161616;stroke:#FFFFFF;stroke-width:0.25;stroke-miterlimit:10;}
	.st9{fill:#1D1D1B;}
</style>
<path class="st0" d="M6.13,12.27v12.27H0V12.27H6.13z M12.27,12.27H6.13V6.13h6.13V12.27z M12.27,24.54v6.13H6.13v-6.13H12.27z
	 M24.54,6.13H12.27V0h12.27V6.13z M12.27,30.67h12.27v6.13H12.27V30.67z M24.54,12.27V6.13h6.13v6.13H24.54z M30.67,24.54v6.13
	h-6.13v-6.13H30.67z M30.67,24.54V12.27h6.13v12.27H30.67z M55.21,42.94v6.13h-6.13v6.13h-6.13v-6.13H36.8v-6.13h-6.13V30.67h12.27
	v6.13h6.13v6.13H55.21z"/>
</svg>
