<?xml version="1.0" encoding="utf-8"?>
<!-- Generator: Adobe Illustrator 27.3.1, SVG Export Plug-In . SVG Version: 6.00 Build 0)  -->
<svg version="1.1" id="Lager_1" xmlns="http://www.w3.org/2000/svg" xmlns:xlink="http://www.w3.org/1999/xlink" x="0px" y="0px"
	 viewBox="0 0 55.31 49.16" style="enable-background:new 0 0 55.31 49.16;" xml:space="preserve">
<style type="text/css">
	.st0{fill:#FFFFFF;}
	.st1{fill:#1D1E1C;}
	.st2{fill:#161616;}
	.st3{fill:none;stroke:#FFFFFF;stroke-width:0.15;stroke-miterlimit:10;}
	.st4{fill:#F4F4F4;}
	.st5{fill:none;stroke:#FFFFFF;stroke-width:0.25;stroke-miterlimit:10;}
	.st6{fill:#6300FF;}
	.st7{fill:#C3EEC3;}
	.st8{fill:#161616;stroke:#FFFFFF;stroke-width:0.25;stroke-miterlimit:10;}
	.st9{fill:#1D1D1B;}
</style>
<path class="st6" d="M6.15,12.29v18.44H0V12.29H6.15z M12.29,6.15v6.15H6.15V6.15H12.29z M12.29,30.73v6.14H6.15v-6.14H12.29z
	 M43.02,0v6.15H12.29V0H43.02z M18.43,18.44v6.15h-6.14v-6.15H18.43z M30.73,36.87v6.15H12.29v-6.15H30.73z M30.73,18.44v6.15h-6.15
	v-6.15H30.73z M36.87,43.02v6.15h-6.15v-6.15H36.87z M43.02,18.44v6.15h-6.15v-6.15H43.02z M43.02,36.87v6.15h-6.15v-6.15H43.02z
	 M49.16,6.15v6.15h-6.14V6.15H49.16z M49.16,30.73v6.14h-6.14v-6.14H49.16z M55.31,12.29v18.44h-6.15V12.29H55.31z"/>
</svg>
