<svg width="72" height="49" viewBox="0 0 72 49" fill="none" xmlns="http://www.w3.org/2000/svg">
<g clip-path="url(#clip0_14_15)">
<mask id="mask0_14_15" style="mask-type:luminance" maskUnits="userSpaceOnUse" x="0" y="0" width="72" height="49">
<path d="M71.7767 0H0V49H71.7767V0Z" fill="white"/>
</mask>
<g mask="url(#mask0_14_15)">
<path d="M7.17767 27.941V41.9117H0V27.941H7.17767ZM14.3554 13.9706V27.941H7.17767V13.9706H14.3554ZM64.5991 41.9117V48.8969H7.17767V41.9117H64.5991ZM21.533 6.98527V13.9706H14.3554V6.98527H21.533ZM21.533 27.941V34.9265H14.3554V27.941H21.533ZM35.8885 0V6.98527H21.533V0H35.8885ZM43.0661 6.98527V13.9706H35.8885V6.98527H43.0661ZM43.0661 20.9558V27.941H35.8885V20.9558H43.0661ZM57.4215 13.9706V20.9558H43.0661V13.9706H57.4215ZM64.5991 20.9558V27.941H57.4215V20.9558H64.5991ZM71.7767 27.941V41.9117H64.5991V27.941H71.7767Z" fill="#EDEDED"/>
</g>
</g>
<defs>
<clipPath id="clip0_14_15">
<rect width="72" height="49" fill="white"/>
</clipPath>
</defs>
</svg>
