<svg width="900" height="419" viewBox="0 0 900 419" fill="none" xmlns="http://www.w3.org/2000/svg">
<g clip-path="url(#clip0)">
<rect width="900" height="419" fill="white"/>
<g clip-path="url(#clip1)">
<path d="M499.323 327.179L269.823 459.689C258.991 465.901 246.141 467.573 234.08 464.341C222.019 461.109 211.727 453.235 205.453 442.439L52.6631 177.819C46.4512 166.986 44.7785 154.134 48.0106 142.071C51.2427 130.009 59.1168 119.715 69.9131 113.439L334.533 -39.341C345.365 -45.5525 358.215 -47.2248 370.276 -43.9927C382.337 -40.7606 392.629 -32.8866 398.903 -22.091L454.113 73.539" stroke="#006AC9" stroke-width="0.78" stroke-miterlimit="10"/>
<path opacity="0.97" d="M522.373 170.019L566.533 246.509C572.743 257.343 574.414 270.194 571.182 282.255C567.95 294.317 560.078 304.611 549.283 310.889L361.463 419.319" stroke="#006AC9" stroke-width="0.78" stroke-miterlimit="10"/>
<path opacity="0.93" d="M197.483 472.129L22.973 169.859C16.7615 159.027 15.0892 146.177 18.3213 134.116C21.5534 122.055 29.4273 111.763 40.223 105.489L342.483 -69.021C353.313 -75.2204 366.155 -76.886 378.208 -73.6545C390.261 -70.423 400.547 -62.5566 406.823 -51.771L581.373 250.489C587.584 261.321 589.257 274.171 586.025 286.232C582.793 298.293 574.919 308.585 564.123 314.859L261.823 489.369C250.994 495.569 238.153 497.236 226.101 494.007C214.048 490.777 203.761 482.913 197.483 472.129Z" stroke="#006AC9" stroke-width="0.78" stroke-miterlimit="10"/>
<path opacity="0.9" d="M564.113 327.419L257.883 504.219C247.052 510.433 234.201 512.107 222.139 508.875C210.078 505.642 199.786 497.767 193.513 486.969L8.13335 165.889C1.92137 155.055 0.248755 142.204 3.48082 130.141C6.71288 118.079 14.587 107.785 25.3834 101.509L346.463 -83.871C357.296 -90.074 370.141 -91.7416 382.198 -88.5101C394.255 -85.2785 404.545 -77.41 410.823 -66.621L571.593 211.819" stroke="#006AC9" stroke-width="0.78" stroke-miterlimit="10"/>
<path opacity="0.87" d="M515.953 93.709L611.063 258.439C617.273 269.272 618.946 282.122 615.716 294.183C612.486 306.245 604.616 316.539 593.823 322.819L483.413 386.599" stroke="#006AC9" stroke-width="0.78" stroke-miterlimit="10"/>
<path opacity="0.84" d="M119.163 22.269L354.413 -113.551C365.249 -119.772 378.108 -121.45 390.178 -118.218C402.248 -114.985 412.547 -107.105 418.823 -96.301L625.903 262.419C629.365 268.419 631.457 275.11 632.031 282.012C632.605 288.915 631.646 295.86 629.223 302.349" stroke="#006AC9" stroke-width="0.78" stroke-miterlimit="10"/>
<path opacity="0.8" d="M552.183 371.949L245.953 548.749C235.12 554.961 222.268 556.634 210.206 553.402C198.143 550.169 187.85 542.295 181.573 531.499L-36.4267 153.949C-42.6319 143.119 -44.3007 130.274 -41.0689 118.217C-37.837 106.161 -29.967 95.8732 -19.1767 89.599L358.393 -128.401C369.231 -134.629 382.095 -136.31 394.17 -133.077C406.244 -129.845 416.547 -121.961 422.823 -111.151L555.323 118.359" stroke="#006AC9" stroke-width="0.78" stroke-miterlimit="10"/>
<path opacity="0.77" d="M619.133 207.239L655.593 270.369C661.805 281.202 663.478 294.054 660.246 306.117C657.014 318.179 649.14 328.473 638.343 334.749L490.823 419.919" stroke="#006AC9" stroke-width="0.78" stroke-miterlimit="10"/>
<path opacity="0.74" d="M574.393 108.009L670.393 274.349C675.088 282.469 677.234 291.814 676.553 301.169" stroke="#006AC9" stroke-width="0.78" stroke-miterlimit="10"/>
<path opacity="0.74" d="M624.233 355.439L486.843 434.759" stroke="#006AC9" stroke-width="0.78" stroke-miterlimit="10"/>
<path opacity="0.71" d="M618.933 163.419L685.273 278.329C691.486 289.16 693.16 302.009 689.929 314.07C686.699 326.13 678.827 336.423 668.033 342.699L480.213 451.139" stroke="#006AC9" stroke-width="0.78" stroke-miterlimit="10"/>
<path opacity="0.67" d="M674.593 238.089L700.123 282.309C706.334 293.141 708.007 305.991 704.775 318.052C701.543 330.113 693.669 340.405 682.873 346.679L547.583 424.789" stroke="#006AC9" stroke-width="0.78" stroke-miterlimit="10"/>
<path opacity="0.64" d="M635.023 386.859L226.023 622.969C215.191 629.178 202.342 630.849 190.281 627.617C178.221 624.385 167.93 616.513 161.653 605.719L-110.617 134.069C-116.829 123.235 -118.501 110.384 -115.269 98.3214C-112.037 86.2587 -104.163 75.9652 -93.3667 69.6889L378.283 -202.621C389.112 -208.835 401.959 -210.512 414.019 -207.286C426.08 -204.059 436.374 -196.192 442.653 -185.401L693.553 249.159" stroke="#006AC9" stroke-width="0.78" stroke-miterlimit="10"/>
<path opacity="0.61" d="M672.933 377.519L222.093 637.809C211.265 644.024 198.417 645.703 186.355 642.479C174.293 639.254 163.996 631.389 157.713 620.599L-125.457 130.089C-131.666 119.252 -133.334 106.398 -130.096 94.3346C-126.859 82.2715 -118.978 71.9802 -108.177 65.7089L382.263 -217.461C393.095 -223.673 405.945 -225.345 418.006 -222.113C430.067 -218.881 440.359 -211.007 446.633 -200.211L626.243 110.869" stroke="#006AC9" stroke-width="0.78" stroke-miterlimit="10"/>
<path opacity="0.58" d="M584.653 441.029L218.113 652.649C207.28 658.861 194.428 660.533 182.365 657.301C170.303 654.069 160.009 646.195 153.733 635.399L-140.267 126.109C-146.476 115.276 -148.147 102.427 -144.915 90.367C-141.683 78.3068 -133.811 68.015 -123.017 61.7388L386.273 -232.261C397.107 -238.473 409.958 -240.146 422.021 -236.914C434.083 -233.682 444.377 -225.808 450.653 -215.011L710.903 235.789" stroke="#006AC9" stroke-width="0.78" stroke-miterlimit="10"/>
<path opacity="0.54" d="M691.123 392.109L214.123 667.499C203.289 673.708 190.439 675.379 178.377 672.148C166.315 668.916 156.021 661.043 149.743 650.249L-155.177 122.139C-161.389 111.305 -163.061 98.454 -159.829 86.3914C-156.597 74.3288 -148.723 64.0352 -137.927 57.759L390.213 -247.151C401.047 -253.36 413.898 -255.031 425.96 -251.8C438.022 -248.568 448.315 -240.695 454.593 -229.901L746.173 275.099" stroke="#006AC9" stroke-width="0.78" stroke-miterlimit="10"/>
<path opacity="0.51" d="M765.823 287.469L774.323 302.189C780.543 313.023 782.223 325.879 778.994 337.948C775.766 350.017 767.892 360.317 757.093 366.599L603.753 455.089" stroke="#006AC9" stroke-width="0.78" stroke-miterlimit="10"/>
<path opacity="0.48" d="M722.203 399.259L206.203 697.179C195.37 703.391 182.518 705.063 170.456 701.831C158.393 698.599 148.099 690.725 141.823 679.929L-184.837 114.179C-191.051 103.347 -192.725 90.4966 -189.493 78.4348C-186.26 66.373 -178.385 56.0813 -167.587 49.8088L398.173 -276.831C409.005 -283.043 421.855 -284.715 433.916 -281.483C445.977 -278.251 456.269 -270.377 462.543 -259.581L725.403 195.689" stroke="#006AC9" stroke-width="0.78" stroke-miterlimit="10"/>
<path opacity="0.45" d="M770.873 252.719L804.023 310.149C810.239 320.975 811.919 333.82 808.696 345.881C805.474 357.941 797.61 368.236 786.823 374.519L661.493 446.849" stroke="#006AC9" stroke-width="0.78" stroke-miterlimit="10"/>
<path opacity="0.41" d="M795.993 274.499L818.873 314.119C825.083 324.953 826.754 337.804 823.522 349.865C820.29 361.927 812.418 372.221 801.623 378.499L649.063 466.599" stroke="#006AC9" stroke-width="0.78" stroke-miterlimit="10"/>
<path opacity="0.38" d="M758.013 416.219L194.243 741.709C183.413 747.921 170.564 749.595 158.503 746.365C146.442 743.135 136.149 735.263 129.873 724.469L-229.367 102.249C-235.579 91.4155 -237.251 78.564 -234.019 66.5014C-230.787 54.4388 -222.913 44.1452 -212.117 37.869L410.103 -321.401C420.935 -327.613 433.785 -329.285 445.846 -326.053C457.907 -322.821 468.199 -314.947 474.473 -304.151L772.403 211.849" stroke="#006AC9" stroke-width="0.78" stroke-miterlimit="10"/>
<path opacity="0.35" d="M125.893 739.309L-244.207 98.3089C-250.434 87.4739 -252.115 74.6134 -248.882 62.542C-245.649 50.4706 -237.765 40.1716 -226.957 33.8989L414.043 -336.211C424.877 -342.42 437.728 -344.092 449.79 -340.86C461.852 -337.628 472.145 -329.755 478.423 -318.961L848.523 322.039C854.735 332.872 856.408 345.724 853.176 357.786C849.944 369.849 842.07 380.143 831.273 386.419L190.273 756.599C179.435 762.808 166.58 764.474 154.517 761.234C142.453 757.995 132.163 750.112 125.893 739.309V739.309Z" stroke="#006AC9" stroke-width="0.78" stroke-miterlimit="10"/>
<path opacity="0.32" d="M819.243 249.599L863.403 326.089C869.612 336.921 871.283 349.771 868.051 361.831C864.819 373.891 856.947 384.183 846.153 390.459L700.473 474.539" stroke="#006AC9" stroke-width="0.78" stroke-miterlimit="10"/>
<path opacity="0.28" d="M794.603 432.739L182.313 786.249C171.481 792.458 158.631 794.129 146.571 790.897C134.511 787.665 124.219 779.793 117.943 768.999L-273.897 90.3189C-280.109 79.4855 -281.782 66.634 -278.549 54.5714C-275.317 42.5087 -267.443 32.2152 -256.647 25.9389L422.033 -365.891C432.867 -372.103 445.718 -373.776 457.781 -370.544C469.843 -367.312 480.137 -359.437 486.413 -348.641L804.823 202.899" stroke="#006AC9" stroke-width="0.78" stroke-miterlimit="10"/>
<path opacity="0.25" d="M700.223 499.779L178.343 801.089C167.51 807.301 154.658 808.974 142.596 805.741C130.533 802.509 120.239 794.635 113.963 783.839L-288.737 86.3389C-294.949 75.5054 -296.621 62.654 -293.389 50.5913C-290.157 38.5287 -282.283 28.2352 -271.487 21.9589L426.013 -380.741C436.846 -386.95 449.695 -388.621 461.755 -385.389C473.815 -382.157 484.107 -374.285 490.383 -363.491L841.123 244.009" stroke="#006AC9" stroke-width="0.78" stroke-miterlimit="10"/>
</g>
</g>
<defs>
<clipPath id="clip0">
<rect width="900" height="419" fill="white"/>
</clipPath>
<clipPath id="clip1">
<rect width="900" height="718" fill="white" transform="translate(0 -149)"/>
</clipPath>
</defs>
</svg>
