<svg id="LOGO" xmlns="http://www.w3.org/2000/svg" xmlns:xlink="http://www.w3.org/1999/xlink" viewBox="0 0 431.46 400"><defs><style>.cls-1{fill:url(#linear-gradient);}.cls-2{fill:url(#linear-gradient-2);}.cls-3{fill:url(#linear-gradient-3);}.cls-4{fill:url(#linear-gradient-4);}.cls-5{fill:url(#linear-gradient-5);}</style><linearGradient id="linear-gradient" x1="185.7" y1="349.57" x2="254.09" y2="349.57" gradientUnits="userSpaceOnUse"><stop offset="0" stop-color="#6cd6d1"/><stop offset="1" stop-color="#048ac4"/></linearGradient><linearGradient id="linear-gradient-2" x1="84.96" y1="82.46" x2="348.01" y2="575.53" xlink:href="#linear-gradient"/><linearGradient id="linear-gradient-3" x1="267.18" y1="152.3" x2="378.51" y2="356.62" xlink:href="#linear-gradient"/><linearGradient id="linear-gradient-4" x1="244.4" y1="-34.57" x2="129.39" y2="245.61" xlink:href="#linear-gradient"/><linearGradient id="linear-gradient-5" x1="320.21" y1="236.87" x2="252.91" y2="116.97" xlink:href="#linear-gradient"/></defs><path class="cls-1" d="M219.89,315.37a34.2,34.2,0,1,0,34.2,34.2A34.2,34.2,0,0,0,219.89,315.37Z"/><path class="cls-2" d="M278.36,36.74a35.83,35.83,0,0,0-3.08-5.92,32.34,32.34,0,0,0-27.06-14.59h-74a31.88,31.88,0,0,0-29.81,20l-.24.54L76.29,195.25,61,231,15.56,337.08a32.27,32.27,0,0,0-.15,23.25,37.86,37.86,0,0,0,3.43,6.51,32,32,0,0,0,26.47,13.94H119a32.58,32.58,0,0,0,30-19.72l.29-.73,24.22-56.19,14.39-33.47L278,61.4A32.56,32.56,0,0,0,278.36,36.74Z"/><path class="cls-3" d="M416.86,345.94l-39.2-113.49-13.31-38.57-26.58-77A33,33,0,0,0,308.9,93.41a1.32,1.32,0,0,1-.44,0C294.9,92.29,282.57,99,276,111.47l-33.72,66a40,40,0,0,0-2.59,31l2.89,8.46,17.42,52,11.4,33.91,19.73,58.78.19.54.44,1.17A30.84,30.84,0,0,0,318.15,383l68.32.68a29.26,29.26,0,0,0,25.2-10.86,27.66,27.66,0,0,0,5-9.5A28.46,28.46,0,0,0,416.86,345.94Z"/><path class="cls-4" d="M278.36,36.74a35.83,35.83,0,0,0-3.08-5.92,32.34,32.34,0,0,0-27.06-14.59h-74a31.88,31.88,0,0,0-29.81,20l-.24.54L96.09,149c-27.42,64,8.41,138.24,76,154.81l1.36.33,14.39-33.47L278,61.4A32.56,32.56,0,0,0,278.36,36.74Z"/><path class="cls-5" d="M350.29,153.17,337.77,116.9A33,33,0,0,0,308.9,93.41a1.32,1.32,0,0,1-.44,0C294.9,92.29,282.57,99,276,111.47l-33.72,66a40,40,0,0,0-2.59,31l2.89,8.46,17.42,52,11.4,33.91,1.28-.34C336.81,285.05,372,216,350.29,153.17Z"/></svg>