<svg id="LOGO" xmlns="http://www.w3.org/2000/svg" xmlns:xlink="http://www.w3.org/1999/xlink" viewBox="0 0 660.97 165.03"><defs><style>.cls-1{fill:#58595b;}.cls-2{fill:url(#linear-gradient);}.cls-3{fill:url(#linear-gradient-2);}.cls-4{fill:url(#linear-gradient-3);}.cls-5{fill:url(#linear-gradient-4);}.cls-6{fill:url(#linear-gradient-5);}.cls-7{fill:url(#linear-gradient-6);}.cls-8{fill:url(#linear-gradient-7);}.cls-9{fill:url(#linear-gradient-8);}.cls-10{fill:url(#linear-gradient-9);}.cls-11{fill:url(#linear-gradient-10);}.cls-12{fill:url(#linear-gradient-11);}.cls-13{fill:url(#linear-gradient-12);}.cls-14{fill:url(#linear-gradient-13);}.cls-15{fill:url(#linear-gradient-14);}.cls-16{fill:url(#linear-gradient-15);}.cls-17{fill:url(#linear-gradient-16);}.cls-18{fill:url(#linear-gradient-17);}.cls-19{fill:url(#linear-gradient-18);}.cls-20{fill:url(#linear-gradient-19);}.cls-21{fill:url(#linear-gradient-20);}.cls-22{fill:url(#linear-gradient-21);}.cls-23{fill:url(#linear-gradient-22);}.cls-24{fill:url(#linear-gradient-23);}.cls-25{fill:url(#linear-gradient-24);}.cls-26{fill:url(#linear-gradient-25);}.cls-27{fill:url(#linear-gradient-26);}.cls-28{fill:url(#linear-gradient-27);}.cls-29{fill:url(#linear-gradient-28);}</style><linearGradient id="linear-gradient" x1="211.67" y1="114.47" x2="211.67" y2="290.79" gradientUnits="userSpaceOnUse"><stop offset="0" stop-color="#6cd6d1"/><stop offset="1" stop-color="#048ac4"/></linearGradient><linearGradient id="linear-gradient-2" x1="235.52" y1="114.47" x2="235.52" y2="290.78" xlink:href="#linear-gradient"/><linearGradient id="linear-gradient-3" x1="257.58" y1="114.47" x2="257.58" y2="290.79" xlink:href="#linear-gradient"/><linearGradient id="linear-gradient-4" x1="286.99" y1="114.47" x2="286.99" y2="290.78" xlink:href="#linear-gradient"/><linearGradient id="linear-gradient-5" x1="308.69" y1="114.47" x2="308.69" y2="290.78" xlink:href="#linear-gradient"/><linearGradient id="linear-gradient-6" x1="330.23" y1="114.47" x2="330.23" y2="290.79" xlink:href="#linear-gradient"/><linearGradient id="linear-gradient-7" x1="361.53" y1="114.47" x2="361.53" y2="290.78" xlink:href="#linear-gradient"/><linearGradient id="linear-gradient-8" x1="375.63" y1="114.47" x2="375.63" y2="290.79" xlink:href="#linear-gradient"/><linearGradient id="linear-gradient-9" x1="391.03" y1="114.47" x2="391.03" y2="290.78" xlink:href="#linear-gradient"/><linearGradient id="linear-gradient-10" x1="412.47" y1="114.47" x2="412.47" y2="290.79" xlink:href="#linear-gradient"/><linearGradient id="linear-gradient-11" x1="434.06" y1="114.47" x2="434.06" y2="290.79" xlink:href="#linear-gradient"/><linearGradient id="linear-gradient-12" x1="465.35" y1="114.47" x2="465.35" y2="290.78" xlink:href="#linear-gradient"/><linearGradient id="linear-gradient-13" x1="484.85" y1="114.47" x2="484.85" y2="290.78" xlink:href="#linear-gradient"/><linearGradient id="linear-gradient-14" x1="506.51" y1="114.47" x2="506.51" y2="290.78" xlink:href="#linear-gradient"/><linearGradient id="linear-gradient-15" x1="525.84" y1="114.47" x2="525.84" y2="290.78" xlink:href="#linear-gradient"/><linearGradient id="linear-gradient-16" x1="545.28" y1="114.47" x2="545.28" y2="290.79" xlink:href="#linear-gradient"/><linearGradient id="linear-gradient-17" x1="561.47" y1="114.47" x2="561.47" y2="290.79" xlink:href="#linear-gradient"/><linearGradient id="linear-gradient-18" x1="573.39" y1="114.47" x2="573.39" y2="290.77" xlink:href="#linear-gradient"/><linearGradient id="linear-gradient-19" x1="585.65" y1="114.47" x2="585.65" y2="290.79" xlink:href="#linear-gradient"/><linearGradient id="linear-gradient-20" x1="601.88" y1="114.47" x2="601.88" y2="290.78" xlink:href="#linear-gradient"/><linearGradient id="linear-gradient-21" x1="623.53" y1="114.47" x2="623.53" y2="290.79" xlink:href="#linear-gradient"/><linearGradient id="linear-gradient-22" x1="76.97" y1="144.42" x2="105.28" y2="144.42" xlink:href="#linear-gradient"/><linearGradient id="linear-gradient-23" x1="36.31" y1="14.94" x2="83.86" y2="144.38" xlink:href="#linear-gradient"/><linearGradient id="linear-gradient-24" x1="96.4" y1="14.74" x2="151.79" y2="152.1" xlink:href="#linear-gradient"/><linearGradient id="linear-gradient-25" x1="31.83" y1="141.61" x2="50.67" y2="-21.97" xlink:href="#linear-gradient"/><linearGradient id="linear-gradient-26" x1="81.16" y1="132.69" x2="84.12" y2="33.36" xlink:href="#linear-gradient"/><linearGradient id="linear-gradient-27" x1="141.36" y1="154.19" x2="98.15" y2="86.43" xlink:href="#linear-gradient"/><linearGradient id="linear-gradient-28" x1="132.67" y1="63.7" x2="176" y2="149.61" xlink:href="#linear-gradient"/></defs><path class="cls-1" d="M215.88,61.45q6.06,5.46,6.05,16.51v30.31H210.51V102a14.07,14.07,0,0,1-6.35,5.18,24.86,24.86,0,0,1-9.93,1.79,24.33,24.33,0,0,1-10.16-2,15.85,15.85,0,0,1-6.74-5.52,14,14,0,0,1-2.37-8,13.71,13.71,0,0,1,5.18-11.18q5.19-4.22,16.32-4.21h13.37v-.78q0-5.41-3.25-8.33T197,66.05a28,28,0,0,0-8.58,1.35,21.21,21.21,0,0,0-7.11,3.78l-4.75-8.81a29.33,29.33,0,0,1,9.78-4.75A43.47,43.47,0,0,1,198.4,56Q209.83,56,215.88,61.45Zm-11,36.61a11.35,11.35,0,0,0,5-6v-6h-12.5q-10.46,0-10.46,6.88a6.18,6.18,0,0,0,2.62,5.23,12,12,0,0,0,7.26,1.94A15.62,15.62,0,0,0,204.84,98.06Z"/><path class="cls-1" d="M237.43,36.41h12.11v71.86H237.43Z"/><path class="cls-1" d="M299,105.47a14.2,14.2,0,0,1-5.18,2.61,23.35,23.35,0,0,1-6.44.87q-8.52,0-13.17-4.45t-4.65-13V66.63h-8.52V56.94h8.52V45.13h12.11V56.94h13.85v9.69H281.69v24.6A8.15,8.15,0,0,0,283.53,97a6.91,6.91,0,0,0,5.33,2,10.65,10.65,0,0,0,6.78-2.13Z"/><path class="cls-1" d="M316.36,105.56a24.75,24.75,0,0,1-9.83-9.44A26.64,26.64,0,0,1,303,82.41a26.37,26.37,0,0,1,3.53-13.65,24.85,24.85,0,0,1,9.83-9.4,31.39,31.39,0,0,1,28.38,0,24.85,24.85,0,0,1,9.83,9.4,26.38,26.38,0,0,1,3.54,13.65,26.65,26.65,0,0,1-3.54,13.71,24.75,24.75,0,0,1-9.83,9.44,31.39,31.39,0,0,1-28.38,0Zm25.18-11.43q4.36-4.45,4.36-11.72t-4.36-11.72a15.86,15.86,0,0,0-22,0q-4.31,4.47-4.31,11.72t4.31,11.72a15.83,15.83,0,0,0,22,0Z"/><path class="cls-1" d="M373.41,107.31a30.92,30.92,0,0,1-9.59-4.17l4.65-9.2a29.82,29.82,0,0,0,8.38,3.73,34.63,34.63,0,0,0,9.63,1.4q10.84,0,10.85-5.71a3.82,3.82,0,0,0-2.76-3.78,47.21,47.21,0,0,0-8.86-2,72.09,72.09,0,0,1-10.41-2.23,16,16,0,0,1-7-4.41c-2-2.09-2.95-5-2.95-8.76a13.78,13.78,0,0,1,6.15-11.77Q377.67,56,388.13,56a48.32,48.32,0,0,1,10.65,1.21,29.87,29.87,0,0,1,8.72,3.25l-4.65,9.2A28.7,28.7,0,0,0,388,65.76q-5.32,0-8.08,1.59a4.78,4.78,0,0,0-2.76,4.22,4.2,4.2,0,0,0,2.95,4.11A46.68,46.68,0,0,0,389.29,78a69.9,69.9,0,0,1,10.17,2.23,16,16,0,0,1,6.83,4.26c1.9,2,2.86,4.84,2.86,8.52a13.48,13.48,0,0,1-6.3,11.62q-6.3,4.36-17.14,4.36A46.58,46.58,0,0,1,373.41,107.31Z"/><path class="cls-1" d="M450.7,105.47a14.33,14.33,0,0,1-5.19,2.61,23.35,23.35,0,0,1-6.44.87q-8.52,0-13.17-4.45t-4.65-13V66.63h-8.52V56.94h8.52V45.13h12.11V56.94h13.85v9.69H433.36v24.6A8.15,8.15,0,0,0,435.2,97a6.91,6.91,0,0,0,5.33,2,10.65,10.65,0,0,0,6.78-2.13Z"/><path class="cls-1" d="M490.6,56V67.5a15.77,15.77,0,0,0-2.81-.29q-7.07,0-11,4.11t-4,11.87v25.08H460.67V56.56H472.2v7.55Q477.42,56,490.6,56Z"/><path class="cls-1" d="M551.42,56.56v51.71H539.9v-6.58a19.22,19.22,0,0,1-7.27,5.37,23.34,23.34,0,0,1-9.39,1.89q-10.37,0-16.32-5.76t-6-17.1V56.56h12.11V84.45q0,7,3.15,10.41t9,3.44q6.48,0,10.31-4t3.83-11.57V56.56Z"/><path class="cls-1" d="M576.6,105.56a24.92,24.92,0,0,1-10-9.44A26.39,26.39,0,0,1,563,82.41a26.12,26.12,0,0,1,3.59-13.65,25.09,25.09,0,0,1,9.92-9.4A30.37,30.37,0,0,1,591,56a28,28,0,0,1,13.42,3.1A20.18,20.18,0,0,1,613.12,68l-9.3,5.43A14.84,14.84,0,0,0,598.25,68a16.26,16.26,0,0,0-18.55,2.62q-4.46,4.41-4.45,11.76t4.4,11.77a16.34,16.34,0,0,0,18.6,2.62,14.84,14.84,0,0,0,5.57-5.38l9.3,5.43a21.06,21.06,0,0,1-8.77,9A27.43,27.43,0,0,1,591,109,30.31,30.31,0,0,1,576.6,105.56Z"/><path class="cls-1" d="M655.34,105.47a14.28,14.28,0,0,1-5.18,2.61,23.35,23.35,0,0,1-6.44.87q-8.52,0-13.17-4.45t-4.65-13V66.63h-8.52V56.94h8.52V45.13H638V56.94h13.85v9.69H638v24.6A8.15,8.15,0,0,0,639.85,97a6.9,6.9,0,0,0,5.32,2A10.63,10.63,0,0,0,652,96.85Z"/><path class="cls-2" d="M224.76,121.56l-6,15.95h-2l-5-13.07-5,13.07h-2l-6-15.95h2.06l5,13.56,5.13-13.56h1.85l5.09,13.56,5.07-13.56Z"/><path class="cls-3" d="M243.25,130.21H229.91a5.7,5.7,0,0,0,1.91,4,6.37,6.37,0,0,0,4.37,1.54,6.79,6.79,0,0,0,2.73-.54,5.89,5.89,0,0,0,2.15-1.56l1.21,1.4a6.81,6.81,0,0,1-2.65,1.94,9.05,9.05,0,0,1-3.5.66,8.8,8.8,0,0,1-4.35-1,7.51,7.51,0,0,1-3-2.9,8.2,8.2,0,0,1-1.06-4.18,8.55,8.55,0,0,1,1-4.19,7.29,7.29,0,0,1,2.79-2.88,7.84,7.84,0,0,1,4-1,7.75,7.75,0,0,1,4,1,7.26,7.26,0,0,1,2.76,2.87,8.58,8.58,0,0,1,1,4.2Zm-11.56-5.45a5.74,5.74,0,0,0-1.78,3.84h11.31a5.77,5.77,0,0,0-1.77-3.84,5.86,5.86,0,0,0-7.76,0Z"/><path class="cls-4" d="M261.78,122.46a7.32,7.32,0,0,1,2.85,2.86,9.14,9.14,0,0,1,0,8.43,7.31,7.31,0,0,1-2.85,2.88,8.06,8.06,0,0,1-4.06,1,7.62,7.62,0,0,1-3.6-.84,6.64,6.64,0,0,1-2.56-2.46v3.15H249.5V115h2.15v9.58a6.55,6.55,0,0,1,2.57-2.34,7.46,7.46,0,0,1,3.5-.81A8.16,8.16,0,0,1,261.78,122.46ZM260.6,135a5.46,5.46,0,0,0,2.14-2.2,7.22,7.22,0,0,0,0-6.49,5.44,5.44,0,0,0-2.14-2.19,6.31,6.31,0,0,0-6.08,0,5.39,5.39,0,0,0-2.12,2.19,7.14,7.14,0,0,0,0,6.49,5.42,5.42,0,0,0,2.12,2.2,6.31,6.31,0,0,0,6.08,0Z"/><path class="cls-5" d="M292,123a6.07,6.07,0,0,1,1.67,4.63v9.88h-2.06V135a5.05,5.05,0,0,1-2.14,1.94,7.56,7.56,0,0,1-3.35.69,6.58,6.58,0,0,1-4.25-1.27,4.39,4.39,0,0,1-.1-6.64,7.18,7.18,0,0,1,4.68-1.24h5.07v-1a4.08,4.08,0,0,0-1.16-3.14,4.73,4.73,0,0,0-3.36-1.08,8.64,8.64,0,0,0-2.91.5,7.62,7.62,0,0,0-2.4,1.38l-1-1.6a8.71,8.71,0,0,1,2.91-1.6,11.51,11.51,0,0,1,3.58-.56A6.75,6.75,0,0,1,292,123Zm-2.42,12.13a5,5,0,0,0,1.94-2.41v-2.61h-5c-2.72,0-4.09.95-4.09,2.86a2.59,2.59,0,0,0,1.06,2.19,4.81,4.81,0,0,0,3,.81A5.65,5.65,0,0,0,289.59,135.13Z"/><path class="cls-6" d="M314.25,123.19a6.76,6.76,0,0,1,1.78,5.07v9.25h-2.15v-9a5.28,5.28,0,0,0-1.25-3.79,4.67,4.67,0,0,0-3.55-1.31,5.44,5.44,0,0,0-4.07,1.53,5.8,5.8,0,0,0-1.5,4.23v8.37h-2.16V121.56h2.06v2.94a5.93,5.93,0,0,1,2.45-2.25,7.73,7.73,0,0,1,3.62-.81A6.47,6.47,0,0,1,314.25,123.19Z"/><path class="cls-7" d="M338.32,115v22.5h-2.07v-3.15a6.57,6.57,0,0,1-2.56,2.46,7.58,7.58,0,0,1-3.59.84,8.1,8.1,0,0,1-4.07-1,7.31,7.31,0,0,1-2.85-2.88,9.14,9.14,0,0,1,0-8.43,7.32,7.32,0,0,1,2.85-2.86,8.2,8.2,0,0,1,4.07-1,7.49,7.49,0,0,1,3.5.81,6.53,6.53,0,0,1,2.56,2.34V115Zm-5,20a5.48,5.48,0,0,0,2.12-2.2,7.22,7.22,0,0,0,0-6.49,5.46,5.46,0,0,0-2.12-2.19,6.29,6.29,0,0,0-6.07,0,5.46,5.46,0,0,0-2.12,2.19,7.22,7.22,0,0,0,0,6.49,5.48,5.48,0,0,0,2.12,2.2,6.29,6.29,0,0,0,6.07,0Z"/><path class="cls-8" d="M358.28,136.63a7.38,7.38,0,0,1-2.92-2.89,8.83,8.83,0,0,1,0-8.39,7.49,7.49,0,0,1,2.92-2.88,8.71,8.71,0,0,1,4.23-1,8.17,8.17,0,0,1,3.69.81,6.09,6.09,0,0,1,2.56,2.34l-1.61,1.1a5,5,0,0,0-2-1.78,6,6,0,0,0-2.64-.59,6.22,6.22,0,0,0-3.11.78,5.4,5.4,0,0,0-2.15,2.19,7.26,7.26,0,0,0,0,6.51A5.44,5.44,0,0,0,359.4,135a6.22,6.22,0,0,0,3.11.78,6.14,6.14,0,0,0,2.64-.58,4.9,4.9,0,0,0,2-1.76l1.61,1.09a6.1,6.1,0,0,1-2.58,2.35,8.14,8.14,0,0,1-3.67.8A8.6,8.6,0,0,1,358.28,136.63Z"/><path class="cls-9" d="M374.55,115h2.15v22.5h-2.15Z"/><path class="cls-10" d="M386.89,136.62a7.65,7.65,0,0,1-2.91-2.9,8.79,8.79,0,0,1,0-8.37,7.59,7.59,0,0,1,2.91-2.88,8.9,8.9,0,0,1,8.31,0,7.5,7.5,0,0,1,2.9,2.88,8.94,8.94,0,0,1,0,8.37,7.55,7.55,0,0,1-2.9,2.9,8.82,8.82,0,0,1-8.31,0Zm7.2-1.64a5.39,5.39,0,0,0,2.11-2.2,7.31,7.31,0,0,0,0-6.49,5.37,5.37,0,0,0-2.11-2.19,6.33,6.33,0,0,0-6.09,0,5.39,5.39,0,0,0-2.12,2.19,7.14,7.14,0,0,0,0,6.49A5.42,5.42,0,0,0,388,135a6.33,6.33,0,0,0,6.09,0Z"/><path class="cls-11" d="M419.73,121.56v15.95h-2.06V134.6a5.91,5.91,0,0,1-2.34,2.26,7,7,0,0,1-3.39.8,6.16,6.16,0,0,1-6.73-6.85v-9.25h2.15v9a5.32,5.32,0,0,0,1.24,3.82,4.67,4.67,0,0,0,3.55,1.3,5.21,5.21,0,0,0,4-1.53,5.94,5.94,0,0,0,1.46-4.26v-8.37Z"/><path class="cls-12" d="M442.14,115v22.5h-2.06v-3.15a6.64,6.64,0,0,1-2.56,2.46,7.62,7.62,0,0,1-3.6.84,8.06,8.06,0,0,1-4.06-1,7.25,7.25,0,0,1-2.85-2.88,9.14,9.14,0,0,1,0-8.43,7.26,7.26,0,0,1,2.85-2.86,8.16,8.16,0,0,1,4.06-1,7.46,7.46,0,0,1,3.5.81,6.55,6.55,0,0,1,2.57,2.34V115Zm-5,20a5.42,5.42,0,0,0,2.12-2.2,7.14,7.14,0,0,0,0-6.49,5.39,5.39,0,0,0-2.12-2.19,6.28,6.28,0,0,0-6.06,0,5.48,5.48,0,0,0-2.13,2.19,7.22,7.22,0,0,0,0,6.49,5.51,5.51,0,0,0,2.13,2.2,6.28,6.28,0,0,0,6.06,0Z"/><path class="cls-13" d="M462.11,136.63a7.4,7.4,0,0,1-2.93-2.89,8.83,8.83,0,0,1,0-8.39,7.51,7.51,0,0,1,2.93-2.88,8.66,8.66,0,0,1,4.23-1,8.13,8.13,0,0,1,3.68.81,6,6,0,0,1,2.56,2.34l-1.6,1.1a5.16,5.16,0,0,0-2-1.78,6,6,0,0,0-2.64-.59,6.19,6.19,0,0,0-3.11.78,5.34,5.34,0,0,0-2.15,2.19,7.18,7.18,0,0,0,0,6.51,5.37,5.37,0,0,0,2.15,2.18,6.45,6.45,0,0,0,5.75.2,5,5,0,0,0,2-1.76l1.6,1.09a6,6,0,0,1-2.57,2.35,8.2,8.2,0,0,1-3.67.8A8.55,8.55,0,0,1,462.11,136.63Z"/><path class="cls-14" d="M480.71,136.62a7.65,7.65,0,0,1-2.91-2.9,8.79,8.79,0,0,1,0-8.37,7.59,7.59,0,0,1,2.91-2.88,8.9,8.9,0,0,1,8.31,0,7.41,7.41,0,0,1,2.89,2.88,8.87,8.87,0,0,1,0,8.37,7.46,7.46,0,0,1-2.89,2.9,8.82,8.82,0,0,1-8.31,0Zm7.2-1.64a5.39,5.39,0,0,0,2.11-2.2,7.31,7.31,0,0,0,0-6.49,5.37,5.37,0,0,0-2.11-2.19,6.33,6.33,0,0,0-6.09,0,5.48,5.48,0,0,0-2.13,2.19,7.22,7.22,0,0,0,0,6.49,5.51,5.51,0,0,0,2.13,2.2,6.33,6.33,0,0,0,6.09,0Z"/><path class="cls-15" d="M512.08,123.19a6.8,6.8,0,0,1,1.77,5.07v9.25H511.7v-9a5.32,5.32,0,0,0-1.24-3.79,4.69,4.69,0,0,0-3.55-1.31,5.45,5.45,0,0,0-4.08,1.53,5.8,5.8,0,0,0-1.5,4.23v8.37h-2.15V121.56h2.06v2.94a5.9,5.9,0,0,1,2.44-2.25,7.76,7.76,0,0,1,3.62-.81A6.5,6.5,0,0,1,512.08,123.19Z"/><path class="cls-16" d="M522.08,137.1a7.88,7.88,0,0,1-2.77-1.41l1-1.69a8.27,8.27,0,0,0,2.52,1.28,9.8,9.8,0,0,0,3.15.5,6,6,0,0,0,3.23-.68,2.15,2.15,0,0,0,1.05-1.92,1.74,1.74,0,0,0-.58-1.38,3.75,3.75,0,0,0-1.46-.76,20.39,20.39,0,0,0-2.33-.5,26.56,26.56,0,0,1-3.12-.74,4.68,4.68,0,0,1-2-1.29,3.58,3.58,0,0,1-.83-2.52,4,4,0,0,1,1.66-3.28,7.55,7.55,0,0,1,4.64-1.27,12.29,12.29,0,0,1,3.1.41,8.19,8.19,0,0,1,2.54,1.08l-.94,1.73a8,8,0,0,0-4.7-1.37,5.43,5.43,0,0,0-3.11.73,2.23,2.23,0,0,0-1,1.91,1.88,1.88,0,0,0,.59,1.45,3.5,3.5,0,0,0,1.47.81,24.15,24.15,0,0,0,2.43.53,25.91,25.91,0,0,1,3.06.73,4.45,4.45,0,0,1,2,1.24,3.42,3.42,0,0,1,.82,2.43,3.85,3.85,0,0,1-1.75,3.32,8.26,8.26,0,0,1-4.83,1.22A12.1,12.1,0,0,1,522.08,137.1Z"/><path class="cls-17" d="M552.54,121.56v15.95h-2.06V134.6a5.89,5.89,0,0,1-2.33,2.26,7,7,0,0,1-3.4.8,6.16,6.16,0,0,1-6.73-6.85v-9.25h2.15v9a5.37,5.37,0,0,0,1.24,3.82,4.68,4.68,0,0,0,3.55,1.3,5.25,5.25,0,0,0,4-1.53,5.93,5.93,0,0,0,1.45-4.26v-8.37Z"/><path class="cls-18" d="M560.4,115h2.15v22.5H560.4Z"/><path class="cls-19" d="M578.83,136.54a3.91,3.91,0,0,1-1.5.84,6.07,6.07,0,0,1-1.86.28,4.67,4.67,0,0,1-3.46-1.21A4.62,4.62,0,0,1,570.8,133v-9.65H568v-1.82h2.85v-3.48H573v3.48h4.85v1.82H573v9.52a3,3,0,0,0,.71,2.17,2.7,2.7,0,0,0,2.05.75,4.06,4.06,0,0,0,1.29-.22,3.19,3.19,0,0,0,1.07-.6Z"/><path class="cls-20" d="M584.53,117.62a1.5,1.5,0,0,1-.45-1.09,1.46,1.46,0,0,1,.45-1.06,1.56,1.56,0,0,1,1.13-.46,1.58,1.58,0,0,1,1.12.44,1.44,1.44,0,0,1,.45,1,1.53,1.53,0,0,1-.45,1.12,1.61,1.61,0,0,1-2.25,0Zm0,3.94h2.16v15.95h-2.16Z"/><path class="cls-21" d="M607.44,123.19a6.8,6.8,0,0,1,1.78,5.07v9.25h-2.16v-9a5.28,5.28,0,0,0-1.24-3.79,4.67,4.67,0,0,0-3.55-1.31,5.45,5.45,0,0,0-4.08,1.53,5.8,5.8,0,0,0-1.5,4.23v8.37h-2.15V121.56h2.06v2.94a6,6,0,0,1,2.44-2.25,7.77,7.77,0,0,1,3.63-.81A6.47,6.47,0,0,1,607.44,123.19Z"/><path class="cls-22" d="M631.71,121.56v14q0,4.06-2,6c-1.33,1.31-3.32,2-6,2a13.48,13.48,0,0,1-4.2-.65,8.74,8.74,0,0,1-3.23-1.81l1.09-1.64a8.15,8.15,0,0,0,2.81,1.61,10.32,10.32,0,0,0,3.47.58,6.14,6.14,0,0,0,4.46-1.41,5.94,5.94,0,0,0,1.42-4.39v-2a6.5,6.5,0,0,1-2.62,2.31,8.18,8.18,0,0,1-3.59.79,8.43,8.43,0,0,1-4.08-1,7.22,7.22,0,0,1-2.88-2.76,8.18,8.18,0,0,1,0-8,7.23,7.23,0,0,1,2.86-2.73,8.68,8.68,0,0,1,4.1-1,8.21,8.21,0,0,1,3.67.82,6.6,6.6,0,0,1,2.63,2.37v-3.07Zm-5,12.69a5.34,5.34,0,0,0,2.17-2.07,6,6,0,0,0,.77-3,5.89,5.89,0,0,0-.77-3,5.49,5.49,0,0,0-2.15-2.07,6.59,6.59,0,0,0-3.14-.74,6.52,6.52,0,0,0-3.11.73,5.21,5.21,0,0,0-2.15,2.06,6.29,6.29,0,0,0,0,6.07,5.29,5.29,0,0,0,2.15,2.07,6.42,6.42,0,0,0,3.11.75A6.48,6.48,0,0,0,626.68,134.25Z"/><circle class="cls-23" cx="91.13" cy="144.42" r="14.15"/><path class="cls-24" d="M115.32,15A13.18,13.18,0,0,0,114,12.48a13.35,13.35,0,0,0-11.18-6H72.21a13.2,13.2,0,0,0-12.32,8.27l-.1.22L6.56,139.25a13.23,13.23,0,0,0-.06,9.63,14.31,14.31,0,0,0,1.41,2.68,13.28,13.28,0,0,0,11,5.79H49.37a13.5,13.5,0,0,0,12.41-8.17l.11-.3L115.17,25.15A13.49,13.49,0,0,0,115.32,15Zm-7.95,6.83L54,145.83a5.06,5.06,0,0,1-4.63,3H18.86a4.73,4.73,0,0,1-3.93-2.08,4.57,4.57,0,0,1-.56-4.26L67.7,18A4.81,4.81,0,0,1,72.21,15h30.65a4.91,4.91,0,0,1,4.51,6.83Z"/><path class="cls-25" d="M172.65,142.92,139.92,48.13A13.64,13.64,0,0,0,128,38.4a.55.55,0,0,1-.18,0,13.71,13.71,0,0,0-13.43,7.49l-14,27.33A16.5,16.5,0,0,0,99.33,86l1.18,3.51,20.11,59.86.08.24.18.47a12.77,12.77,0,0,0,10.91,8.16l28.28.27A12.09,12.09,0,0,0,170.5,154a12.28,12.28,0,0,0,2.15-11.12Zm-11.91,7.16-28.28-.27a4.34,4.34,0,0,1-3.71-2.8L107.49,83.66l-.08-.24A8.09,8.09,0,0,1,108,77l14-27.33a5.37,5.37,0,0,1,9.87.9l32.75,94.77a3.67,3.67,0,0,1-3.49,4.74Z"/><path class="cls-26" d="M64.53,15a7.18,7.18,0,0,0-6.61,4.36L6.56,139.25l0,.1c-1.79,4.6,1.88,9.53,6.82,9.53h5.52a4.73,4.73,0,0,1-3.93-2.08,4.57,4.57,0,0,1-.56-4.26L67.7,18A4.81,4.81,0,0,1,72.21,15Z"/><path class="cls-27" d="M108.16,15h-5.3a4.91,4.91,0,0,1,4.51,6.83L54,145.83a5.06,5.06,0,0,1-4.63,3h6.11a9.75,9.75,0,0,0,9-5.89L115.17,25.15l0-.1C117.21,20.23,113.39,15,108.16,15Z"/><path class="cls-28" d="M132.46,149.81a4.34,4.34,0,0,1-3.71-2.8L107.49,83.66l-.08-.24A8.09,8.09,0,0,1,108,77l-4,7.77a16.07,16.07,0,0,0-.89,12.37c3.61,10.76,10.94,32.56,15,44.71a11.78,11.78,0,0,0,11.44,7.92Z"/><path class="cls-29" d="M172.65,142.92,139.92,48.13a7,7,0,0,0-.74-1.6c-3.77-6.05-12.89-5.33-16.25,1l-1.37,2.58.11.12.25-.5a5.37,5.37,0,0,1,9.87.9l32.75,94.77a3.67,3.67,0,0,1-3.49,4.74h6.08a5.65,5.65,0,0,0,5.54-7.11Z"/></svg>