<svg width="661" height="166" viewBox="0 0 661 166" fill="none" xmlns="http://www.w3.org/2000/svg">
<path d="M215.88 61.45C219.92 65.09 221.937 70.5933 221.93 77.96V108.27H210.51V102C208.954 104.318 206.744 106.122 204.16 107.18C201.007 108.449 197.628 109.058 194.23 108.97C190.739 109.04 187.274 108.358 184.07 106.97C181.352 105.796 179.017 103.883 177.33 101.45C175.745 99.0862 174.919 96.2956 174.96 93.45C174.891 91.3115 175.324 89.1866 176.223 87.2453C177.123 85.304 178.464 83.6001 180.14 82.27C183.6 79.4567 189.04 78.0533 196.46 78.06H209.83V77.28C209.83 73.6733 208.747 70.8967 206.58 68.95C204.413 67.0033 201.22 66.0367 197 66.05C194.087 66.051 191.192 66.5065 188.42 67.4C185.83 68.1944 183.417 69.4775 181.31 71.18L176.56 62.37C179.495 60.191 182.812 58.58 186.34 57.62C190.264 56.5172 194.324 55.9719 198.4 56C206.02 56 211.847 57.8167 215.88 61.45ZM204.88 98.06C207.204 96.7145 208.976 94.5885 209.88 92.06V86.06H197.38C190.407 86.06 186.92 88.3533 186.92 92.94C186.891 93.9603 187.115 94.972 187.572 95.8846C188.029 96.7972 188.705 97.5824 189.54 98.17C191.69 99.5773 194.235 100.257 196.8 100.11C199.616 100.164 202.394 99.4556 204.84 98.06H204.88Z" fill="white"/>
<path d="M237.43 36.41H249.54V108.27H237.43V36.41Z" fill="white"/>
<path d="M299 105.47C297.471 106.687 295.708 107.576 293.82 108.08C291.724 108.669 289.557 108.962 287.38 108.95C281.7 108.95 277.31 107.467 274.21 104.5C271.11 101.533 269.56 97.2 269.56 91.5V66.63H261.04V56.94H269.56V45.13H281.67V56.94H295.52V66.63H281.69V91.23C281.539 93.3183 282.198 95.3844 283.53 97C284.225 97.6928 285.06 98.2295 285.979 98.5744C286.899 98.9193 287.88 99.0643 288.86 99C291.297 99.0872 293.691 98.3353 295.64 96.87L299 105.47Z" fill="white"/>
<path d="M316.36 105.56C312.264 103.395 308.859 100.125 306.53 96.12C304.138 91.952 302.919 87.2147 303 82.41C302.916 77.6239 304.136 72.9053 306.53 68.76C308.869 64.7735 312.273 61.5182 316.36 59.36C320.758 57.1311 325.619 55.9696 330.55 55.9696C335.481 55.9696 340.342 57.1311 344.74 59.36C348.827 61.5182 352.231 64.7735 354.57 68.76C356.967 72.9045 358.19 77.6231 358.11 82.41C358.188 87.2156 356.965 91.9528 354.57 96.12C352.241 100.125 348.836 103.395 344.74 105.56C340.342 107.789 335.481 108.95 330.55 108.95C325.619 108.95 320.758 107.789 316.36 105.56V105.56ZM341.54 94.13C344.447 91.1633 345.9 87.2567 345.9 82.41C345.9 77.5633 344.447 73.6567 341.54 70.69C338.585 67.8449 334.642 66.2554 330.54 66.2554C326.438 66.2554 322.495 67.8449 319.54 70.69C316.667 73.67 315.23 77.5767 315.23 82.41C315.23 87.2433 316.667 91.15 319.54 94.13C322.492 96.9821 326.436 98.5763 330.54 98.5763C334.644 98.5763 338.588 96.9821 341.54 94.13V94.13Z" fill="white"/>
<path d="M373.41 107.31C370 106.475 366.757 105.064 363.82 103.14L368.47 93.94C371.054 95.6081 373.881 96.8663 376.85 97.67C379.978 98.5876 383.22 99.0589 386.48 99.07C393.707 99.07 397.323 97.1667 397.33 93.36C397.354 92.5131 397.096 91.6821 396.597 90.9978C396.097 90.3135 395.384 89.8148 394.57 89.58C391.688 88.6301 388.721 87.9604 385.71 87.58C382.19 87.0943 378.71 86.3489 375.3 85.35C372.62 84.5191 370.206 82.9983 368.3 80.94C366.3 78.85 365.35 75.94 365.35 72.18C365.301 69.8589 365.838 67.5629 366.914 65.5053C367.989 63.4476 369.566 61.695 371.5 60.41C375.613 57.47 381.157 56 388.13 56C391.714 56.0071 395.286 56.413 398.78 57.21C401.839 57.8311 404.781 58.9278 407.5 60.46L402.85 69.66C398.346 67.0355 393.212 65.6873 388 65.76C384.453 65.76 381.76 66.29 379.92 67.35C379.112 67.7263 378.426 68.3208 377.938 69.0665C377.451 69.8121 377.181 70.6793 377.16 71.57C377.138 72.4826 377.414 73.3774 377.947 74.119C378.479 74.8606 379.238 75.4086 380.11 75.68C383.083 76.7625 386.159 77.5398 389.29 78C392.731 78.4895 396.13 79.2349 399.46 80.23C402.062 81.0447 404.414 82.5111 406.29 84.49C408.19 86.49 409.15 89.33 409.15 93.01C409.186 95.3248 408.625 97.6099 407.522 99.6452C406.419 101.68 404.81 103.397 402.85 104.63C398.65 107.537 392.937 108.99 385.71 108.99C381.553 108.981 377.417 108.416 373.41 107.31V107.31Z" fill="white"/>
<path d="M450.7 105.47C449.166 106.685 447.4 107.573 445.51 108.08C443.414 108.669 441.247 108.962 439.07 108.95C433.39 108.95 429 107.467 425.9 104.5C422.8 101.533 421.25 97.2 421.25 91.5V66.63H412.73V56.94H421.25V45.13H433.36V56.94H447.21V66.63H433.36V91.23C433.209 93.3183 433.868 95.3844 435.2 97C435.895 97.6928 436.73 98.2295 437.649 98.5744C438.569 98.9193 439.55 99.0643 440.53 99C442.967 99.0872 445.361 98.3353 447.31 96.87L450.7 105.47Z" fill="white"/>
<path d="M490.6 56V67.5C489.674 67.3195 488.733 67.2224 487.79 67.21C483.077 67.21 479.41 68.58 476.79 71.32C474.17 74.06 472.837 78.0167 472.79 83.19V108.27H460.67V56.56H472.2V64.11C475.68 58.7033 481.813 56 490.6 56Z" fill="white"/>
<path d="M551.42 56.56V108.27H539.9V101.69C537.938 104.032 535.446 105.873 532.63 107.06C529.664 108.332 526.467 108.976 523.24 108.95C516.327 108.95 510.887 107.03 506.92 103.19C502.953 99.35 500.953 93.65 500.92 86.09V56.56H513.03V84.45C513.03 89.1167 514.08 92.5867 516.18 94.86C518.28 97.1333 521.28 98.28 525.18 98.3C529.5 98.3 532.937 96.9667 535.49 94.3C538.043 91.6333 539.32 87.7767 539.32 82.73V56.56H551.42Z" fill="white"/>
<path d="M576.6 105.56C572.447 103.414 568.982 100.142 566.6 96.12C564.172 91.9638 562.927 87.2228 563 82.41C562.921 77.6168 564.163 72.8943 566.59 68.76C568.963 64.7691 572.397 61.5151 576.51 59.36C580.987 57.0562 585.966 55.9016 591 56C595.662 55.8998 600.275 56.9654 604.42 59.1C608.185 61.076 611.23 64.1908 613.12 68L603.82 73.43C602.479 71.1569 600.556 69.2825 598.25 68C595.265 66.4703 591.881 65.901 588.56 66.37C585.239 66.839 582.144 68.3235 579.7 70.62C576.727 73.56 575.243 77.48 575.25 82.38C575.257 87.28 576.723 91.2033 579.65 94.15C582.104 96.4469 585.207 97.9309 588.536 98.3998C591.864 98.8686 595.257 98.2995 598.25 96.77C600.55 95.5012 602.472 93.6447 603.82 91.39L613.12 96.82C611.181 100.643 608.121 103.782 604.35 105.82C600.241 107.994 595.648 109.088 591 109C585.989 109.061 581.042 107.879 576.6 105.56V105.56Z" fill="white"/>
<path d="M655.34 105.47C653.81 106.685 652.047 107.574 650.16 108.08C648.064 108.669 645.897 108.962 643.72 108.95C638.04 108.95 633.65 107.467 630.55 104.5C627.45 101.533 625.9 97.2 625.9 91.5V66.63H617.38V56.94H625.9V45.13H638V56.94H651.85V66.63H638V91.23C637.852 93.3196 638.515 95.3859 639.85 97C640.544 97.692 641.377 98.2283 642.294 98.5732C643.212 98.9181 644.192 99.0635 645.17 99C647.627 99.0948 650.04 98.335 652 96.85L655.34 105.47Z" fill="white"/>
<path d="M224.76 121.56L218.76 137.51H216.76L211.76 124.44L206.76 137.51H204.76L198.76 121.56H200.82L205.82 135.12L210.95 121.56H212.8L217.89 135.12L222.96 121.56H224.76Z" fill="url(#paint0_linear)"/>
<path d="M243.25 130.21H229.91C229.945 130.971 230.132 131.716 230.46 132.403C230.788 133.09 231.251 133.705 231.82 134.21C233.032 135.254 234.592 135.803 236.19 135.75C237.128 135.76 238.057 135.577 238.92 135.21C239.746 134.861 240.481 134.327 241.07 133.65L242.28 135.05C241.568 135.903 240.658 136.569 239.63 136.99C238.519 137.44 237.329 137.664 236.13 137.65C234.618 137.696 233.12 137.352 231.78 136.65C230.526 135.986 229.486 134.981 228.78 133.75C228.06 132.476 227.694 131.033 227.72 129.57C227.69 128.111 228.035 126.668 228.72 125.38C229.363 124.178 230.329 123.18 231.51 122.5C232.73 121.816 234.111 121.47 235.51 121.5C236.909 121.466 238.291 121.812 239.51 122.5C240.679 123.181 241.635 124.175 242.27 125.37C242.956 126.662 243.3 128.108 243.27 129.57L243.25 130.21ZM231.69 124.76C230.629 125.767 229.993 127.14 229.91 128.6H241.22C241.137 127.142 240.505 125.77 239.45 124.76C238.379 123.814 236.999 123.291 235.57 123.291C234.141 123.291 232.761 123.814 231.69 124.76V124.76Z" fill="url(#paint1_linear)"/>
<path d="M261.78 122.46C262.979 123.127 263.967 124.118 264.63 125.32C265.307 126.622 265.66 128.068 265.66 129.535C265.66 131.002 265.307 132.448 264.63 133.75C263.97 134.959 262.982 135.958 261.78 136.63C260.538 137.315 259.138 137.66 257.72 137.63C256.469 137.65 255.233 137.361 254.12 136.79C253.059 136.218 252.174 135.367 251.56 134.33V137.48H249.5V115H251.65V124.58C252.28 123.583 253.168 122.774 254.22 122.24C255.303 121.689 256.505 121.411 257.72 121.43C259.14 121.414 260.539 121.769 261.78 122.46ZM260.6 135C261.509 134.486 262.252 133.723 262.74 132.8C263.246 131.793 263.51 130.682 263.51 129.555C263.51 128.428 263.246 127.317 262.74 126.31C262.251 125.39 261.508 124.63 260.6 124.12C259.669 123.608 258.623 123.339 257.56 123.339C256.497 123.339 255.451 123.608 254.52 124.12C253.617 124.631 252.881 125.391 252.4 126.31C251.887 127.315 251.62 128.427 251.62 129.555C251.62 130.683 251.887 131.795 252.4 132.8C252.881 133.721 253.617 134.485 254.52 135C255.451 135.512 256.497 135.781 257.56 135.781C258.623 135.781 259.669 135.512 260.6 135V135Z" fill="url(#paint2_linear)"/>
<path d="M292 123C292.586 123.612 293.038 124.341 293.325 125.138C293.613 125.936 293.73 126.784 293.67 127.63V137.51H291.61V135C291.101 135.841 290.357 136.515 289.47 136.94C288.421 137.423 287.275 137.659 286.12 137.63C284.599 137.711 283.097 137.262 281.87 136.36C281.387 135.955 280.998 135.451 280.727 134.882C280.456 134.313 280.311 133.693 280.302 133.063C280.292 132.433 280.419 131.808 280.672 131.232C280.925 130.655 281.3 130.139 281.77 129.72C283.139 128.777 284.794 128.339 286.45 128.48H291.52V127.48C291.56 126.904 291.477 126.327 291.277 125.786C291.077 125.244 290.764 124.752 290.36 124.34C289.421 123.56 288.217 123.173 287 123.26C286.009 123.258 285.024 123.428 284.09 123.76C283.212 124.07 282.399 124.537 281.69 125.14L280.69 123.54C281.548 122.825 282.536 122.282 283.6 121.94C284.756 121.565 285.965 121.376 287.18 121.38C288.936 121.271 290.666 121.852 292 123V123ZM289.58 135.13C290.465 134.552 291.144 133.708 291.52 132.72V130.11H286.52C283.8 130.11 282.43 131.06 282.43 132.97C282.414 133.394 282.502 133.815 282.687 134.197C282.872 134.579 283.147 134.91 283.49 135.16C284.373 135.754 285.428 136.039 286.49 135.97C287.583 135.996 288.66 135.704 289.59 135.13H289.58Z" fill="url(#paint3_linear)"/>
<path d="M314.25 123.19C314.878 123.869 315.359 124.669 315.665 125.541C315.972 126.413 316.096 127.338 316.03 128.26V137.51H313.88V128.51C313.975 127.132 313.526 125.771 312.63 124.72C312.162 124.266 311.605 123.915 310.994 123.689C310.382 123.464 309.73 123.369 309.08 123.41C308.333 123.371 307.586 123.487 306.885 123.751C306.185 124.014 305.547 124.419 305.01 124.94C304.492 125.51 304.092 126.178 303.834 126.904C303.577 127.63 303.466 128.401 303.51 129.17V137.54H301.35V121.56H303.41V124.5C303.995 123.532 304.845 122.751 305.86 122.25C306.983 121.69 308.225 121.412 309.48 121.44C310.352 121.395 311.224 121.526 312.044 121.827C312.864 122.128 313.614 122.592 314.25 123.19Z" fill="url(#paint4_linear)"/>
<path d="M338.32 115V137.5H336.25V134.35C335.639 135.389 334.753 136.24 333.69 136.81C332.581 137.381 331.348 137.67 330.1 137.65C328.679 137.679 327.275 137.335 326.03 136.65C324.828 135.978 323.84 134.979 323.18 133.77C322.503 132.468 322.15 131.022 322.15 129.555C322.15 128.088 322.503 126.642 323.18 125.34C323.843 124.138 324.831 123.147 326.03 122.48C327.277 121.8 328.68 121.455 330.1 121.48C331.315 121.462 332.516 121.74 333.6 122.29C334.649 122.825 335.533 123.633 336.16 124.63V115H338.32ZM333.32 135C334.221 134.482 334.956 133.719 335.44 132.8C335.947 131.793 336.21 130.682 336.21 129.555C336.21 128.428 335.947 127.317 335.44 126.31C334.956 125.394 334.22 124.634 333.32 124.12C332.39 123.608 331.346 123.339 330.285 123.339C329.224 123.339 328.18 123.608 327.25 124.12C326.35 124.634 325.614 125.394 325.13 126.31C324.623 127.317 324.36 128.428 324.36 129.555C324.36 130.682 324.623 131.793 325.13 132.8C325.614 133.719 326.349 134.482 327.25 135C328.18 135.512 329.224 135.781 330.285 135.781C331.346 135.781 332.39 135.512 333.32 135V135Z" fill="url(#paint5_linear)"/>
<path d="M358.28 136.63C357.053 135.962 356.04 134.96 355.36 133.74C354.664 132.451 354.3 131.01 354.3 129.545C354.3 128.08 354.664 126.639 355.36 125.35C356.046 124.137 357.058 123.14 358.28 122.47C359.583 121.785 361.038 121.441 362.51 121.47C363.786 121.448 365.05 121.725 366.2 122.28C367.262 122.795 368.152 123.608 368.76 124.62L367.15 125.72C366.658 124.956 365.966 124.34 365.15 123.94C364.326 123.545 363.423 123.343 362.51 123.35C361.423 123.334 360.351 123.603 359.4 124.13C358.487 124.637 357.74 125.397 357.25 126.32C356.743 127.33 356.479 128.445 356.479 129.575C356.479 130.705 356.743 131.82 357.25 132.83C357.745 133.744 358.491 134.497 359.4 135C360.351 135.527 361.423 135.796 362.51 135.78C363.422 135.785 364.324 135.587 365.15 135.2C365.966 134.809 366.659 134.2 367.15 133.44L368.76 134.53C368.147 135.548 367.25 136.365 366.18 136.88C365.036 137.429 363.779 137.703 362.51 137.68C361.033 137.699 359.576 137.337 358.28 136.63V136.63Z" fill="url(#paint6_linear)"/>
<path d="M374.55 115H376.7V137.5H374.55V115Z" fill="url(#paint7_linear)"/>
<path d="M386.89 136.62C385.674 135.937 384.667 134.934 383.98 133.72C383.284 132.435 382.92 130.996 382.92 129.535C382.92 128.074 383.284 126.635 383.98 125.35C384.668 124.142 385.675 123.145 386.89 122.47C388.171 121.794 389.597 121.441 391.045 121.441C392.493 121.441 393.919 121.794 395.2 122.47C396.415 123.143 397.419 124.14 398.1 125.35C398.783 126.639 399.14 128.076 399.14 129.535C399.14 130.994 398.783 132.431 398.1 133.72C397.419 134.936 396.416 135.939 395.2 136.62C393.922 137.303 392.494 137.66 391.045 137.66C389.596 137.66 388.169 137.303 386.89 136.62V136.62ZM394.09 134.98C394.99 134.465 395.723 133.701 396.2 132.78C396.7 131.771 396.96 130.661 396.96 129.535C396.96 128.409 396.7 127.299 396.2 126.29C395.722 125.372 394.99 124.611 394.09 124.1C393.157 123.588 392.109 123.319 391.045 123.319C389.981 123.319 388.933 123.588 388 124.1C387.097 124.611 386.361 125.371 385.88 126.29C385.367 127.295 385.1 128.407 385.1 129.535C385.1 130.663 385.367 131.775 385.88 132.78C386.358 133.709 387.094 134.48 388 135C388.933 135.512 389.981 135.781 391.045 135.781C392.109 135.781 393.157 135.512 394.09 135V134.98Z" fill="url(#paint8_linear)"/>
<path d="M419.73 121.56V137.51H417.67V134.6C417.117 135.557 416.306 136.34 415.33 136.86C414.285 137.408 413.119 137.683 411.94 137.66C411.023 137.752 410.097 137.636 409.231 137.323C408.364 137.009 407.579 136.505 406.934 135.848C406.288 135.19 405.798 134.397 405.499 133.525C405.201 132.653 405.102 131.725 405.21 130.81V121.56H407.36V130.56C407.258 131.946 407.703 133.318 408.6 134.38C409.068 134.832 409.626 135.181 410.238 135.405C410.849 135.629 411.5 135.723 412.15 135.68C412.887 135.723 413.625 135.609 414.314 135.345C415.004 135.081 415.63 134.674 416.15 134.15C417.177 132.977 417.701 131.447 417.61 129.89V121.52L419.73 121.56Z" fill="url(#paint9_linear)"/>
<path d="M442.14 115V137.5H440.08V134.35C439.466 135.387 438.581 136.238 437.52 136.81C436.407 137.381 435.171 137.67 433.92 137.65C432.502 137.68 431.102 137.335 429.86 136.65C428.656 135.98 427.667 134.981 427.01 133.77C426.333 132.468 425.98 131.022 425.98 129.555C425.98 128.088 426.333 126.642 427.01 125.34C427.67 124.136 428.659 123.145 429.86 122.48C431.103 121.8 432.503 121.455 433.92 121.48C435.135 121.461 436.337 121.739 437.42 122.29C438.472 122.824 439.36 123.633 439.99 124.63V115H442.14ZM437.14 135C438.043 134.485 438.779 133.721 439.26 132.8C439.773 131.795 440.04 130.683 440.04 129.555C440.04 128.427 439.773 127.315 439.26 126.31C438.779 125.391 438.043 124.631 437.14 124.12C436.212 123.609 435.17 123.341 434.11 123.341C433.05 123.341 432.008 123.609 431.08 124.12C430.177 124.633 429.438 125.393 428.95 126.31C428.444 127.317 428.18 128.428 428.18 129.555C428.18 130.682 428.444 131.793 428.95 132.8C429.438 133.72 430.176 134.483 431.08 135C432.008 135.511 433.05 135.779 434.11 135.779C435.17 135.779 436.212 135.511 437.14 135V135Z" fill="url(#paint10_linear)"/>
<path d="M462.11 136.63C460.88 135.963 459.864 134.961 459.18 133.74C458.484 132.451 458.12 131.01 458.12 129.545C458.12 128.08 458.484 126.639 459.18 125.35C459.87 124.136 460.885 123.139 462.11 122.47C463.412 121.782 464.868 121.438 466.34 121.47C467.613 121.448 468.874 121.726 470.02 122.28C471.085 122.791 471.976 123.605 472.58 124.62L470.98 125.72C470.482 124.961 469.792 124.347 468.98 123.94C468.156 123.545 467.253 123.343 466.34 123.35C465.253 123.332 464.18 123.601 463.23 124.13C462.314 124.634 461.567 125.395 461.08 126.32C460.567 127.328 460.3 128.444 460.3 129.575C460.3 130.706 460.567 131.822 461.08 132.83C461.57 133.75 462.317 134.507 463.23 135.01C464.108 135.486 465.084 135.752 466.081 135.787C467.079 135.821 468.071 135.624 468.98 135.21C469.794 134.815 470.485 134.207 470.98 133.45L472.58 134.54C471.974 135.56 471.08 136.378 470.01 136.89C468.865 137.437 467.609 137.711 466.34 137.69C464.862 137.708 463.405 137.343 462.11 136.63V136.63Z" fill="url(#paint11_linear)"/>
<path d="M480.71 136.62C479.494 135.937 478.487 134.934 477.8 133.72C477.104 132.435 476.74 130.996 476.74 129.535C476.74 128.074 477.104 126.635 477.8 125.35C478.488 124.142 479.494 123.145 480.71 122.47C481.991 121.794 483.417 121.441 484.865 121.441C486.313 121.441 487.739 121.794 489.02 122.47C490.234 123.141 491.235 124.138 491.91 125.35C492.599 126.637 492.959 128.075 492.959 129.535C492.959 130.995 492.599 132.433 491.91 133.72C491.236 134.937 490.235 135.942 489.02 136.62C487.741 137.303 486.314 137.66 484.865 137.66C483.416 137.66 481.988 137.303 480.71 136.62V136.62ZM487.91 134.98C488.81 134.465 489.543 133.701 490.02 132.78C490.52 131.771 490.78 130.661 490.78 129.535C490.78 128.409 490.52 127.299 490.02 126.29C489.542 125.372 488.81 124.611 487.91 124.1C486.977 123.588 485.929 123.319 484.865 123.319C483.801 123.319 482.753 123.588 481.82 124.1C480.917 124.613 480.178 125.373 479.69 126.29C479.183 127.297 478.92 128.408 478.92 129.535C478.92 130.662 479.183 131.773 479.69 132.78C480.178 133.7 480.916 134.463 481.82 134.98C482.753 135.492 483.801 135.761 484.865 135.761C485.929 135.761 486.977 135.492 487.91 134.98V134.98Z" fill="url(#paint12_linear)"/>
<path d="M512.08 123.19C512.704 123.871 513.182 124.671 513.487 125.543C513.791 126.415 513.915 127.339 513.85 128.26V137.51H511.7V128.51C511.794 127.134 511.349 125.775 510.46 124.72C509.992 124.267 509.434 123.917 508.823 123.691C508.212 123.466 507.56 123.37 506.91 123.41C506.161 123.371 505.412 123.486 504.71 123.749C504.008 124.013 503.368 124.418 502.83 124.94C502.311 125.51 501.912 126.178 501.654 126.904C501.397 127.63 501.286 128.401 501.33 129.17V137.54H499.18V121.56H501.24V124.5C501.821 123.532 502.668 122.751 503.68 122.25C504.803 121.691 506.046 121.413 507.3 121.44C508.173 121.395 509.047 121.527 509.868 121.828C510.69 122.128 511.442 122.592 512.08 123.19V123.19Z" fill="url(#paint13_linear)"/>
<path d="M522.08 137.1C521.072 136.819 520.131 136.339 519.31 135.69L520.31 134C521.07 134.568 521.923 135.001 522.83 135.28C523.846 135.618 524.91 135.786 525.98 135.78C527.099 135.86 528.218 135.624 529.21 135.1C529.541 134.903 529.813 134.621 529.998 134.284C530.182 133.946 530.273 133.565 530.26 133.18C530.272 132.921 530.226 132.663 530.126 132.424C530.026 132.186 529.873 131.972 529.68 131.8C529.256 131.442 528.757 131.182 528.22 131.04C527.454 130.828 526.676 130.661 525.89 130.54C524.836 130.356 523.794 130.109 522.77 129.8C522.003 129.55 521.314 129.105 520.77 128.51C520.181 127.807 519.884 126.905 519.94 125.99C519.934 125.35 520.082 124.719 520.371 124.148C520.66 123.577 521.081 123.084 521.6 122.71C522.967 121.792 524.596 121.346 526.24 121.44C527.287 121.444 528.328 121.582 529.34 121.85C530.242 122.064 531.101 122.429 531.88 122.93L530.94 124.66C529.555 123.723 527.911 123.244 526.24 123.29C525.154 123.216 524.07 123.47 523.13 124.02C522.815 124.228 522.559 124.512 522.384 124.846C522.209 125.18 522.122 125.553 522.13 125.93C522.118 126.2 522.165 126.469 522.267 126.719C522.369 126.97 522.523 127.195 522.72 127.38C523.137 127.765 523.642 128.043 524.19 128.19C524.99 128.408 525.801 128.585 526.62 128.72C527.654 128.901 528.676 129.145 529.68 129.45C530.446 129.676 531.137 130.105 531.68 130.69C532.258 131.363 532.552 132.234 532.5 133.12C532.516 133.777 532.363 134.427 532.057 135.008C531.751 135.589 531.301 136.082 530.75 136.44C529.304 137.334 527.617 137.76 525.92 137.66C524.618 137.681 523.322 137.492 522.08 137.1V137.1Z" fill="url(#paint14_linear)"/>
<path d="M552.54 121.56V137.51H550.48V134.6C549.93 135.557 549.123 136.34 548.15 136.86C547.102 137.41 545.933 137.685 544.75 137.66C543.833 137.752 542.907 137.636 542.041 137.323C541.174 137.009 540.389 136.505 539.744 135.848C539.098 135.19 538.608 134.397 538.309 133.525C538.011 132.653 537.912 131.725 538.02 130.81V121.56H540.17V130.56C540.074 131.946 540.518 133.315 541.41 134.38C541.879 134.832 542.437 135.181 543.048 135.404C543.659 135.628 544.31 135.722 544.96 135.68C545.697 135.72 546.434 135.605 547.123 135.341C547.812 135.078 548.438 134.672 548.96 134.15C549.984 132.976 550.505 131.445 550.41 129.89V121.52L552.54 121.56Z" fill="url(#paint15_linear)"/>
<path d="M560.4 115H562.55V137.5H560.4V115Z" fill="url(#paint16_linear)"/>
<path d="M578.83 136.54C578.399 136.928 577.886 137.215 577.33 137.38C576.728 137.569 576.101 137.664 575.47 137.66C574.841 137.702 574.211 137.617 573.616 137.409C573.022 137.201 572.475 136.875 572.01 136.45C571.584 135.988 571.257 135.443 571.049 134.85C570.841 134.257 570.756 133.627 570.8 133V123.35H568V121.53H570.85V118.05H573V121.53H577.85V123.35H573V132.87C572.941 133.659 573.197 134.439 573.71 135.04C573.981 135.301 574.303 135.502 574.656 135.631C575.009 135.761 575.385 135.815 575.76 135.79C576.199 135.787 576.635 135.713 577.05 135.57C577.442 135.441 577.806 135.237 578.12 134.97L578.83 136.54Z" fill="url(#paint17_linear)"/>
<path d="M584.53 117.62C584.385 117.478 584.271 117.308 584.193 117.121C584.116 116.934 584.077 116.733 584.08 116.53C584.079 116.332 584.119 116.136 584.196 115.954C584.273 115.772 584.387 115.607 584.53 115.47C584.678 115.321 584.854 115.204 585.048 115.125C585.242 115.046 585.45 115.007 585.66 115.01C586.077 115.003 586.479 115.161 586.78 115.45C587.056 115.711 587.218 116.07 587.23 116.45C587.235 116.657 587.197 116.864 587.12 117.056C587.043 117.249 586.927 117.424 586.78 117.57C586.479 117.864 586.075 118.028 585.655 118.028C585.235 118.028 584.831 117.864 584.53 117.57V117.62ZM584.53 121.56H586.69V137.51H584.53V121.56Z" fill="url(#paint18_linear)"/>
<path d="M607.44 123.19C608.066 123.87 608.546 124.67 608.852 125.542C609.158 126.413 609.283 127.338 609.22 128.26V137.51H607.06V128.51C607.158 127.133 606.713 125.773 605.82 124.72C605.352 124.266 604.795 123.915 604.184 123.689C603.572 123.464 602.92 123.369 602.27 123.41C601.521 123.371 600.772 123.486 600.07 123.749C599.368 124.013 598.728 124.418 598.19 124.94C597.672 125.51 597.272 126.178 597.014 126.904C596.757 127.63 596.646 128.401 596.69 129.17V137.54H594.54V121.56H596.6V124.5C597.186 123.535 598.031 122.756 599.04 122.25C600.167 121.69 601.412 121.412 602.67 121.44C603.542 121.395 604.414 121.526 605.234 121.827C606.054 122.128 606.804 122.592 607.44 123.19V123.19Z" fill="url(#paint19_linear)"/>
<path d="M631.71 121.56V135.56C631.71 138.267 631.043 140.267 629.71 141.56C628.38 142.87 626.39 143.56 623.71 143.56C622.284 143.567 620.867 143.347 619.51 142.91C618.316 142.544 617.215 141.927 616.28 141.1L617.37 139.46C618.19 140.179 619.145 140.727 620.18 141.07C621.295 141.461 622.469 141.657 623.65 141.65C625.264 141.787 626.868 141.28 628.11 140.24C628.628 139.64 629.02 138.942 629.264 138.189C629.508 137.435 629.598 136.639 629.53 135.85V133.85C628.884 134.845 627.978 135.643 626.91 136.16C625.789 136.692 624.561 136.962 623.32 136.95C621.897 136.966 620.494 136.622 619.24 135.95C618.04 135.319 617.042 134.362 616.36 133.19C615.675 131.968 615.315 130.591 615.315 129.19C615.315 127.789 615.675 126.412 616.36 125.19C617.041 124.032 618.032 123.087 619.22 122.46C620.484 121.794 621.892 121.451 623.32 121.46C624.59 121.446 625.847 121.726 626.99 122.28C628.066 122.816 628.976 123.635 629.62 124.65V121.58L631.71 121.56ZM626.71 134.25C627.616 133.781 628.369 133.063 628.88 132.18C629.395 131.265 629.66 130.23 629.65 129.18C629.666 128.129 629.4 127.093 628.88 126.18C628.368 125.305 627.624 124.588 626.73 124.11C625.761 123.607 624.682 123.353 623.59 123.37C622.509 123.352 621.44 123.603 620.48 124.1C619.578 124.563 618.831 125.279 618.33 126.16C617.818 127.09 617.549 128.134 617.549 129.195C617.549 130.256 617.818 131.3 618.33 132.23C618.833 133.112 619.579 133.831 620.48 134.3C621.437 134.808 622.507 135.066 623.59 135.05C624.671 135.045 625.733 134.77 626.68 134.25H626.71Z" fill="url(#paint20_linear)"/>
<path d="M91.13 158.57C98.9448 158.57 105.28 152.235 105.28 144.42C105.28 136.605 98.9448 130.27 91.13 130.27C83.3152 130.27 76.98 136.605 76.98 144.42C76.98 152.235 83.3152 158.57 91.13 158.57Z" fill="url(#paint21_linear)"/>
<path d="M115.32 15C114.972 14.1148 114.53 13.2699 114 12.48C112.781 10.6309 111.12 9.11432 109.168 8.06689C107.217 7.01946 105.035 6.47412 102.82 6.48H72.21C69.5641 6.46494 66.9748 7.24538 64.778 8.72004C62.5811 10.1947 60.8782 12.2956 59.89 14.75L59.79 14.97L6.56 139.25C5.33094 142.338 5.30952 145.776 6.5 148.88C6.87389 149.821 7.34653 150.719 7.91 151.56C9.13205 153.349 10.7734 154.812 12.6907 155.822C14.6081 156.831 16.7433 157.356 18.91 157.35H49.37C52.0109 157.351 54.5942 156.578 56.8001 155.126C59.0059 153.674 60.7373 151.606 61.78 149.18L61.89 148.88L115.17 25.15C116.54 21.9152 116.593 18.2738 115.32 15ZM107.37 21.83L54 145.83C53.6013 146.724 52.9517 147.484 52.1298 148.017C51.308 148.549 50.3493 148.832 49.37 148.83H18.86C18.0846 148.832 17.3207 148.643 16.6353 148.281C15.95 147.918 15.3644 147.392 14.93 146.75C14.4946 146.14 14.2158 145.433 14.1181 144.69C14.0205 143.947 14.107 143.192 14.37 142.49L67.7 18C68.0635 17.1048 68.6881 16.3399 69.4926 15.8048C70.297 15.2697 71.2439 14.9893 72.21 15H102.86C103.67 15.0015 104.468 15.2036 105.181 15.5882C105.895 15.9729 106.502 16.5281 106.948 17.2044C107.395 17.8808 107.667 18.6571 107.741 19.4642C107.814 20.2713 107.687 21.0841 107.37 21.83Z" fill="url(#paint22_linear)"/>
<path d="M172.65 142.92L139.92 48.13C139.143 45.497 137.59 43.1597 135.463 41.4237C133.336 39.6878 130.735 38.6339 128 38.4C127.94 38.4099 127.88 38.4099 127.82 38.4C125.089 38.1629 122.35 38.7497 119.956 40.0849C117.562 41.42 115.623 43.442 114.39 45.89L100.39 73.22C99.3693 75.1717 98.7497 77.3079 98.5676 79.5028C98.3856 81.6977 98.6448 83.9069 99.33 86L100.51 89.51L120.62 149.37L120.7 149.61L120.88 150.08C121.743 152.331 123.225 154.292 125.156 155.736C127.087 157.181 129.387 158.048 131.79 158.24L160.07 158.51C162.045 158.671 164.029 158.343 165.848 157.557C167.667 156.77 169.264 155.549 170.5 154C171.725 152.455 172.559 150.638 172.934 148.703C173.308 146.767 173.211 144.77 172.65 142.88V142.92ZM160.74 150.08L132.46 149.81C131.64 149.743 130.855 149.444 130.199 148.949C129.542 148.453 129.039 147.78 128.75 147.01L107.49 83.66L107.41 83.42C107.063 82.3666 106.936 81.2531 107.038 80.1487C107.139 79.0443 107.467 77.9725 108 77L122 49.67C122.495 48.7334 123.257 47.9642 124.188 47.4593C125.12 46.9544 126.18 46.7363 127.235 46.8325C128.29 46.9287 129.293 47.3349 130.118 48C130.943 48.665 131.552 49.5592 131.87 50.57L164.62 145.34C164.787 145.887 164.823 146.465 164.727 147.029C164.631 147.592 164.404 148.126 164.065 148.586C163.726 149.046 163.284 149.421 162.774 149.681C162.265 149.94 161.702 150.077 161.13 150.08H160.74Z" fill="url(#paint23_linear)"/>
<path d="M64.53 15C63.1221 14.9986 61.7449 15.4112 60.5696 16.1864C59.3944 16.9616 58.473 18.0652 57.92 19.36L6.56 139.25V139.35C4.77 143.95 8.44 148.88 13.38 148.88H18.9C18.1246 148.882 17.3607 148.693 16.6754 148.331C15.99 147.968 15.4044 147.442 14.97 146.8C14.5346 146.19 14.2558 145.483 14.1581 144.74C14.0605 143.997 14.147 143.242 14.41 142.54L67.7 18C68.0635 17.1048 68.6881 16.3399 69.4926 15.8048C70.297 15.2697 71.2439 14.9893 72.21 15H64.53Z" fill="url(#paint24_linear)"/>
<path d="M108.16 15H102.86C103.67 15.0015 104.468 15.2036 105.181 15.5882C105.895 15.9729 106.502 16.5281 106.948 17.2044C107.395 17.8808 107.667 18.6571 107.741 19.4642C107.814 20.2713 107.687 21.0841 107.37 21.83L54 145.83C53.6013 146.724 52.9517 147.484 52.1298 148.017C51.308 148.549 50.3493 148.832 49.37 148.83H55.48C57.3925 148.839 59.2654 148.286 60.8657 147.238C62.4659 146.191 63.7229 144.696 64.48 142.94L115.17 25.15V25.05C117.21 20.23 113.39 15 108.16 15Z" fill="url(#paint25_linear)"/>
<path d="M132.46 149.81C131.64 149.743 130.855 149.444 130.199 148.949C129.542 148.453 129.039 147.78 128.75 147.01L107.49 83.66L107.41 83.42C107.063 82.3666 106.936 81.2531 107.038 80.1487C107.139 79.0443 107.467 77.9725 108 77L104 84.77C103.04 86.6701 102.466 88.7421 102.314 90.8657C102.161 92.9892 102.432 95.122 103.11 97.14C106.72 107.9 114.05 129.7 118.11 141.85C118.929 144.214 120.479 146.256 122.536 147.679C124.593 149.103 127.049 149.836 129.55 149.77L132.46 149.81Z" fill="url(#paint26_linear)"/>
<path d="M172.65 142.92L139.92 48.13C139.742 47.5676 139.493 47.03 139.18 46.53C135.41 40.48 126.29 41.2 122.93 47.53L121.56 50.11L121.67 50.23L121.92 49.73C122.415 48.7934 123.177 48.0242 124.108 47.5193C125.04 47.0144 126.1 46.7963 127.155 46.8925C128.21 46.9887 129.213 47.3949 130.038 48.06C130.863 48.725 131.472 49.6192 131.79 50.63L164.54 145.4C164.707 145.947 164.743 146.525 164.647 147.089C164.551 147.652 164.324 148.186 163.985 148.646C163.646 149.106 163.204 149.481 162.694 149.741C162.185 150 161.622 150.137 161.05 150.14H167.13C168.003 150.153 168.868 149.963 169.655 149.585C170.443 149.207 171.132 148.652 171.669 147.963C172.206 147.274 172.575 146.47 172.749 145.614C172.923 144.758 172.896 143.874 172.67 143.03L172.65 142.92Z" fill="url(#paint27_linear)"/>
<path d="M122.5 43.5L104.5 79.5L130.5 155.5H161.5L168 144L130.5 43.5H122.5Z" fill="white"/>
<path d="M104.5 11H67.5L7 142L18.5 152H56L111 19.5L104.5 11Z" fill="white"/>
<defs>
<linearGradient id="paint0_linear" x1="211.67" y1="114.47" x2="211.67" y2="290.79" gradientUnits="userSpaceOnUse">
<stop stop-color="#6CD6D1"/>
<stop offset="1" stop-color="#048AC4"/>
</linearGradient>
<linearGradient id="paint1_linear" x1="3890.9" y1="1970.92" x2="3890.9" y2="4819.44" gradientUnits="userSpaceOnUse">
<stop stop-color="#6CD6D1"/>
<stop offset="1" stop-color="#048AC4"/>
</linearGradient>
<linearGradient id="paint2_linear" x1="4411.97" y1="2705.66" x2="4411.97" y2="6696.09" gradientUnits="userSpaceOnUse">
<stop stop-color="#6CD6D1"/>
<stop offset="1" stop-color="#048AC4"/>
</linearGradient>
<linearGradient id="paint3_linear" x1="4121.36" y1="1984.06" x2="4121.36" y2="4853.04" gradientUnits="userSpaceOnUse">
<stop stop-color="#6CD6D1"/>
<stop offset="1" stop-color="#048AC4"/>
</linearGradient>
<linearGradient id="paint4_linear" x1="4838.19" y1="1965.39" x2="4838.19" y2="4805.52" gradientUnits="userSpaceOnUse">
<stop stop-color="#6CD6D1"/>
<stop offset="1" stop-color="#048AC4"/>
</linearGradient>
<linearGradient id="paint5_linear" x1="5661.94" y1="2707.94" x2="5661.94" y2="6701.9" gradientUnits="userSpaceOnUse">
<stop stop-color="#6CD6D1"/>
<stop offset="1" stop-color="#048AC4"/>
</linearGradient>
<linearGradient id="paint6_linear" x1="5582.08" y1="1977.38" x2="5582.08" y2="4835.91" gradientUnits="userSpaceOnUse">
<stop stop-color="#6CD6D1"/>
<stop offset="1" stop-color="#048AC4"/>
</linearGradient>
<linearGradient id="paint7_linear" x1="1182.16" y1="2690.57" x2="1182.16" y2="6657.77" gradientUnits="userSpaceOnUse">
<stop stop-color="#6CD6D1"/>
<stop offset="1" stop-color="#048AC4"/>
</linearGradient>
<linearGradient id="paint8_linear" x1="6725.52" y1="1978.08" x2="6725.52" y2="4837.73" gradientUnits="userSpaceOnUse">
<stop stop-color="#6CD6D1"/>
<stop offset="1" stop-color="#048AC4"/>
</linearGradient>
<linearGradient id="paint9_linear" x1="6411.68" y1="1972.56" x2="6411.68" y2="4823.74" gradientUnits="userSpaceOnUse">
<stop stop-color="#6CD6D1"/>
<stop offset="1" stop-color="#048AC4"/>
</linearGradient>
<linearGradient id="paint10_linear" x1="7440.37" y1="2707.95" x2="7440.37" y2="6701.9" gradientUnits="userSpaceOnUse">
<stop stop-color="#6CD6D1"/>
<stop offset="1" stop-color="#048AC4"/>
</linearGradient>
<linearGradient id="paint11_linear" x1="7187.13" y1="1978.53" x2="7187.13" y2="4838.83" gradientUnits="userSpaceOnUse">
<stop stop-color="#6CD6D1"/>
<stop offset="1" stop-color="#048AC4"/>
</linearGradient>
<linearGradient id="paint12_linear" x1="8340.79" y1="1978.08" x2="8340.79" y2="4837.73" gradientUnits="userSpaceOnUse">
<stop stop-color="#6CD6D1"/>
<stop offset="1" stop-color="#048AC4"/>
</linearGradient>
<linearGradient id="paint13_linear" x1="7938.12" y1="1965.38" x2="7938.12" y2="4805.48" gradientUnits="userSpaceOnUse">
<stop stop-color="#6CD6D1"/>
<stop offset="1" stop-color="#048AC4"/>
</linearGradient>
<linearGradient id="paint14_linear" x1="7458.26" y1="1981.18" x2="7458.26" y2="4845.62" gradientUnits="userSpaceOnUse">
<stop stop-color="#6CD6D1"/>
<stop offset="1" stop-color="#048AC4"/>
</linearGradient>
<linearGradient id="paint15_linear" x1="8478.48" y1="1972.56" x2="8478.48" y2="4823.74" gradientUnits="userSpaceOnUse">
<stop stop-color="#6CD6D1"/>
<stop offset="1" stop-color="#048AC4"/>
</linearGradient>
<linearGradient id="paint16_linear" x1="1767.54" y1="2690.57" x2="1767.54" y2="6657.77" gradientUnits="userSpaceOnUse">
<stop stop-color="#6CD6D1"/>
<stop offset="1" stop-color="#048AC4"/>
</linearGradient>
<linearGradient id="paint17_linear" x1="6777.82" y1="2364" x2="6777.82" y2="5823.09" gradientUnits="userSpaceOnUse">
<stop stop-color="#6CD6D1"/>
<stop offset="1" stop-color="#048AC4"/>
</linearGradient>
<linearGradient id="paint18_linear" x1="2429.17" y1="2690.61" x2="2429.17" y2="6657.84" gradientUnits="userSpaceOnUse">
<stop stop-color="#6CD6D1"/>
<stop offset="1" stop-color="#048AC4"/>
</linearGradient>
<linearGradient id="paint19_linear" x1="9439.75" y1="1965.39" x2="9439.75" y2="4805.52" gradientUnits="userSpaceOnUse">
<stop stop-color="#6CD6D1"/>
<stop offset="1" stop-color="#048AC4"/>
</linearGradient>
<linearGradient id="paint20_linear" x1="10837.9" y1="2651.32" x2="10837.9" y2="6548.11" gradientUnits="userSpaceOnUse">
<stop stop-color="#6CD6D1"/>
<stop offset="1" stop-color="#048AC4"/>
</linearGradient>
<linearGradient id="paint21_linear" x1="2255.23" y1="4217.36" x2="3056.4" y2="4217.36" gradientUnits="userSpaceOnUse">
<stop stop-color="#6CD6D1"/>
<stop offset="1" stop-color="#048AC4"/>
</linearGradient>
<linearGradient id="paint22_linear" x1="4022.06" y1="2260.48" x2="12898.7" y2="19976.9" gradientUnits="userSpaceOnUse">
<stop stop-color="white"/>
<stop offset="1" stop-color="#048AC4"/>
</linearGradient>
<linearGradient id="paint23_linear" x1="7294.35" y1="1810.11" x2="16062" y2="15312.5" gradientUnits="userSpaceOnUse">
<stop stop-color="white"/>
<stop offset="1" stop-color="#048AC4"/>
</linearGradient>
<linearGradient id="paint24_linear" x1="2110.4" y1="18973.8" x2="7019.04" y2="-2071.98" gradientUnits="userSpaceOnUse">
<stop stop-color="#FBFBFB"/>
<stop offset="1" stop-color="white"/>
</linearGradient>
<linearGradient id="paint25_linear" x1="5435.05" y1="17772.9" x2="6231.8" y2="4515.65" gradientUnits="userSpaceOnUse">
<stop stop-color="#6CD6D1"/>
<stop offset="1" stop-color="white"/>
</linearGradient>
<linearGradient id="paint26_linear" x1="4369.62" y1="11303.6" x2="1198.16" y2="9241.57" gradientUnits="userSpaceOnUse">
<stop stop-color="white"/>
<stop offset="1" stop-color="white"/>
</linearGradient>
<linearGradient id="paint27_linear" x1="6927.8" y1="6907.66" x2="12725.3" y2="12379.2" gradientUnits="userSpaceOnUse">
<stop stop-color="white"/>
<stop offset="1" stop-color="#048AC4"/>
</linearGradient>
</defs>
</svg>
